<svg width="192" height="64" viewBox="0 0 192 64" fill="none" xmlns="http://www.w3.org/2000/svg">
<path d="M184 26L176 6L168 26M180.8 19.3333H171.2" stroke="black" stroke-width="1.8" stroke-linecap="round" stroke-linejoin="round"/>
<path d="M61 16C61 19 55.18 25 48 25C40.82 25 35 19 35 16C35 13 40.82 7 48 7C55.18 7 61 13 61 16Z" stroke="white" stroke-width="1.2" stroke-linejoin="round"/>
<path d="M53 16C53 17.3261 52.4732 18.5979 51.5355 19.5355C50.5979 20.4732 49.3261 21 48 21C46.6739 21 45.4021 20.4732 44.4645 19.5355C43.5268 18.5979 43 17.3261 43 16C43 14.6739 43.5268 13.4021 44.4645 12.4645C45.4021 11.5268 46.6739 11 48 11C49.3261 11 50.5979 11.5268 51.5355 12.4645C52.4732 13.4021 53 14.6739 53 16Z" stroke="white" stroke-width="1.2" stroke-linejoin="round"/>
<path d="M93 16C93 19 87.18 25 80 25C72.82 25 67 19 67 16C67 13 72.82 7 80 7C87.18 7 93 13 93 16Z" stroke="#063464" stroke-width="1.2" stroke-linejoin="round"/>
<path d="M85 16C85 17.3261 84.4732 18.5979 83.5355 19.5355C82.5979 20.4732 81.3261 21 80 21C78.6739 21 77.4021 20.4732 76.4645 19.5355C75.5268 18.5979 75 17.3261 75 16C75 14.6739 75.5268 13.4021 76.4645 12.4645C77.4021 11.5268 78.6739 11 80 11C81.3261 11 82.5979 11.5268 83.5355 12.4645C84.4732 13.4021 85 14.6739 85 16Z" stroke="#063464" stroke-width="1.2" stroke-linejoin="round"/>
<path d="M29 16C29 19 23.18 25 16 25C8.82 25 3 19 3 16C3 13 8.82 7 16 7C23.18 7 29 13 29 16Z" stroke="black" stroke-width="1.2" stroke-linejoin="round"/>
<path d="M21 16C21 17.3261 20.4732 18.5979 19.5355 19.5355C18.5979 20.4732 17.3261 21 16 21C14.6739 21 13.4021 20.4732 12.4645 19.5355C11.5268 18.5979 11 17.3261 11 16C11 14.6739 11.5268 13.4021 12.4645 12.4645C13.4021 11.5268 14.6739 11 16 11C17.3261 11 18.5979 11.5268 19.5355 12.4645C20.4732 13.4021 21 14.6739 21 16Z" stroke="black" stroke-width="1.2" stroke-linejoin="round"/>
<path d="M49.3333 56L42.6667 40L36 56M46.6667 50.6667H38.6667M60 56V52M60 52V48M60 52C60 53.0609 59.5786 54.0783 58.8284 54.8284C58.0783 55.5786 57.0609 56 56 56C54.9391 56 53.9217 55.5786 53.1716 54.8284C52.4214 54.0783 52 53.0609 52 52C52 50.9391 52.4214 49.9217 53.1716 49.1716C53.9217 48.4214 54.9391 48 56 48C57.0609 48 58.0783 48.4214 58.8284 49.1716C59.5786 49.9217 60 50.9391 60 52Z" stroke="black" stroke-width="1.9" stroke-linecap="round" stroke-linejoin="round"/>
<path d="M12.677 49.7812L10.051 43.5252L7.357 49.7812H12.677ZM19.4 56.2922H12.331V54.9272L12.789 54.9042C13.1252 54.9275 13.4613 54.8583 13.761 54.7042C13.8053 54.676 13.8418 54.6372 13.8671 54.5912C13.8924 54.5453 13.9058 54.4937 13.906 54.4412C13.8501 53.9535 13.7082 53.4795 13.487 53.0412L12.675 51.1102H7.322L6.4 53.2592C6.21384 53.6203 6.09555 54.0124 6.051 54.4162C6.051 54.4522 6.051 54.5352 6.205 54.6572C6.57535 54.8371 6.98465 54.922 7.396 54.9042L7.844 54.9372V56.2912H2V54.9812L2.4 54.9112C2.75419 54.8879 3.0974 54.7788 3.4 54.5932C3.92062 53.9855 4.32106 53.2844 4.58 52.5272L10.155 39.4912H11.2L16.712 52.6652C16.9338 53.3416 17.2907 53.9659 17.761 54.5002C18.103 54.7605 18.5212 54.901 18.951 54.9002L19.405 54.9272L19.4 56.2922Z" fill="black"/>
<path d="M25.841 53.5602V49.5752C25.0821 49.8583 24.339 50.1821 23.615 50.5452C23.1135 50.7969 22.6732 51.1553 22.325 51.5952C22.0715 51.9439 21.9356 52.3642 21.937 52.7952C21.9199 53.2954 22.0957 53.783 22.428 54.1572C22.5655 54.3246 22.7378 54.4599 22.933 54.5539C23.1281 54.6479 23.3414 54.6981 23.558 54.7012C24.4201 54.5707 25.2191 54.1714 25.841 53.5602ZM22.508 56.5092C22.1087 56.5196 21.7116 56.4454 21.343 56.2915C20.9743 56.1376 20.6424 55.9075 20.369 55.6162C19.802 54.9935 19.5028 54.1727 19.536 53.3312C19.5239 52.7771 19.6677 52.2306 19.951 51.7542C20.406 51.0742 21.021 50.5162 21.742 50.1292C22.9017 49.5009 24.1115 48.9697 25.359 48.5412V48.4672C25.4372 47.8307 25.3025 47.1862 24.976 46.6342C24.8393 46.4891 24.6717 46.3767 24.4856 46.3054C24.2995 46.234 24.0996 46.2056 23.901 46.2222C23.6057 46.2011 23.3136 46.2942 23.085 46.4822C23.0011 46.5446 22.9325 46.6253 22.8845 46.7182C22.8365 46.8111 22.8103 46.9137 22.808 47.0182L22.831 47.6642C22.8544 48.0877 22.7108 48.5035 22.431 48.8222C22.2921 48.9593 22.1275 49.0677 21.9467 49.141C21.7658 49.2142 21.5722 49.2511 21.3771 49.2493C21.1819 49.2475 20.989 49.2072 20.8095 49.1307C20.63 49.0541 20.4674 48.9428 20.331 48.8032C20.0616 48.4885 19.9219 48.0831 19.94 47.6692C19.9568 47.24 20.0722 46.8204 20.2772 46.4429C20.4821 46.0654 20.7712 45.7401 21.122 45.4922C22.0235 44.8274 23.1286 44.4978 24.247 44.5602C25.113 44.5304 25.9734 44.7102 26.755 45.0842C27.3061 45.3749 27.736 45.8519 27.968 46.4302C28.1767 47.1438 28.2592 47.8883 28.212 48.6302V52.1802C28.1942 52.7637 28.2112 53.3478 28.263 53.9292C28.2704 53.9983 28.2886 54.0658 28.317 54.1292C28.402 54.0512 28.601 53.9042 29.181 53.3232L30 52.4952V54.4622L29.9 54.5902C28.942 55.8732 28.017 56.4972 27.07 56.4972C26.8323 56.5036 26.5961 56.457 26.3786 56.3606C26.1612 56.2643 25.968 56.1207 25.813 55.9402C25.6378 55.7247 25.5152 55.4713 25.455 55.2002C25.0075 55.5681 24.5279 55.8951 24.022 56.1772C23.5476 56.3972 23.0309 56.5105 22.508 56.5092Z" fill="black"/>
<g clip-path="url(#clip0_2001_2185)">
<path d="M144.814 34.5407C144.75 34.3814 144.638 34.2446 144.493 34.1481C144.348 34.0516 144.176 34 144 34C143.824 34 143.652 34.0516 143.507 34.1481C143.362 34.2446 143.25 34.3814 143.186 34.5407L139.11 44.7264L139.094 44.762L137.06 49.8439C136.975 50.0535 136.981 50.287 137.074 50.493C137.167 50.6989 137.341 50.8605 137.556 50.9422C137.772 51.0238 138.013 51.0188 138.225 50.9283C138.437 50.8378 138.603 50.6692 138.687 50.4596L140.514 45.9002H147.486L149.313 50.4596C149.354 50.5634 149.417 50.6582 149.496 50.7386C149.575 50.8191 149.67 50.8835 149.775 50.9283C149.88 50.9732 149.993 50.9974 150.108 50.9998C150.223 51.0022 150.337 50.9826 150.444 50.9422C150.55 50.9017 150.648 50.8413 150.731 50.7642C150.814 50.6871 150.88 50.5949 150.926 50.493C150.972 50.391 150.997 50.2812 151 50.1698C151.002 50.0584 150.982 49.9477 150.94 49.8439L148.939 44.8452C148.922 44.7779 148.896 44.7129 148.862 44.6518L144.814 34.5407ZM146.808 44.2023H141.193L144 37.1885L146.808 44.2023Z" fill="black"/>
<path d="M132.279 61.9665C132.179 61.934 132.087 61.8821 132.007 61.8138L128.279 58.617C128.192 58.5419 128.121 58.4488 128.073 58.344C128.025 58.2392 128 58.1252 128 58.0098C128 57.8945 128.025 57.7805 128.073 57.6757C128.121 57.5709 128.192 57.4777 128.279 57.4026L132.007 54.1994C132.087 54.1297 132.179 54.0764 132.28 54.0427C132.38 54.009 132.486 53.9955 132.591 54.003C132.697 54.0105 132.8 54.0388 132.894 54.0864C132.989 54.134 133.073 54.1998 133.142 54.2801C133.211 54.3604 133.263 54.4536 133.296 54.5542C133.328 54.6549 133.34 54.761 133.332 54.8664C133.323 54.9718 133.294 55.0745 133.245 55.1685C133.197 55.2624 133.13 55.3458 133.049 55.4138L130.962 57.2058L142.2 57.2058C142.412 57.2058 142.616 57.2901 142.766 57.4401C142.916 57.5902 143 57.7936 143 58.0058C143 58.218 142.916 58.4215 142.766 58.5715C142.616 58.7215 142.412 58.8058 142.2 58.8058L130.958 58.8058L133.047 60.5978C133.127 60.6661 133.193 60.7495 133.24 60.8431C133.288 60.9367 133.317 61.0388 133.325 61.1436C133.333 61.2483 133.32 61.3537 133.288 61.4536C133.255 61.5535 133.203 61.646 133.135 61.7258C133.067 61.8057 132.983 61.8713 132.89 61.9189C132.796 61.9665 132.694 61.9953 132.589 62.0034C132.485 62.0116 132.379 61.9991 132.279 61.9665Z" fill="black"/>
<path d="M155.721 61.9665C155.821 61.934 155.913 61.8821 155.993 61.8138L159.721 58.617C159.808 58.5419 159.879 58.4488 159.927 58.344C159.975 58.2392 160 58.1252 160 58.0098C160 57.8945 159.975 57.7805 159.927 57.6757C159.879 57.5709 159.808 57.4777 159.721 57.4026L155.993 54.1994C155.913 54.1297 155.821 54.0764 155.721 54.0427C155.62 54.009 155.514 53.9955 155.409 54.003C155.303 54.0105 155.2 54.0388 155.106 54.0864C155.011 54.134 154.927 54.1998 154.858 54.2801C154.789 54.3604 154.737 54.4536 154.705 54.5542C154.672 54.6549 154.66 54.761 154.668 54.8664C154.677 54.9718 154.706 55.0745 154.755 55.1685C154.804 55.2624 154.87 55.3458 154.951 55.4138L157.038 57.2058L145.8 57.2058C145.588 57.2058 145.384 57.2901 145.234 57.4401C145.084 57.5902 145 57.7936 145 58.0058C145 58.218 145.084 58.4215 145.234 58.5715C145.384 58.7215 145.588 58.8058 145.8 58.8058L157.043 58.8058L154.953 60.5978C154.873 60.6661 154.807 60.7495 154.76 60.8431C154.712 60.9367 154.683 61.0388 154.675 61.1436C154.667 61.2483 154.68 61.3537 154.712 61.4536C154.745 61.5535 154.797 61.646 154.865 61.7258C154.933 61.8057 155.017 61.8713 155.11 61.9189C155.204 61.9665 155.306 61.9953 155.411 62.0034C155.515 62.0116 155.621 61.9991 155.721 61.9665Z" fill="black"/>
</g>
<path d="M112.814 34.5407C112.75 34.3814 112.638 34.2446 112.493 34.1481C112.348 34.0516 112.176 34 112 34C111.824 34 111.652 34.0516 111.507 34.1481C111.362 34.2446 111.25 34.3814 111.186 34.5407L107.11 44.7264L107.094 44.762L105.06 49.8439C104.975 50.0535 104.981 50.287 105.074 50.493C105.167 50.6989 105.341 50.8605 105.556 50.9422C105.772 51.0238 106.013 51.0188 106.225 50.9283C106.437 50.8378 106.603 50.6692 106.687 50.4596L108.514 45.9002H115.486L117.313 50.4596C117.354 50.5634 117.417 50.6582 117.496 50.7386C117.575 50.8191 117.67 50.8835 117.775 50.9283C117.88 50.9732 117.993 50.9974 118.108 50.9998C118.223 51.0022 118.337 50.9826 118.444 50.9422C118.55 50.9017 118.648 50.8413 118.731 50.7642C118.814 50.6871 118.88 50.5949 118.926 50.493C118.972 50.391 118.997 50.2812 119 50.1698C119.002 50.0584 118.982 49.9477 118.94 49.8439L116.939 44.8452C116.922 44.7779 116.896 44.7129 116.862 44.6518L112.814 34.5407ZM114.808 44.2023H109.193L112 37.1885L114.808 44.2023Z" fill="black"/>
<path d="M105.279 61.9665C105.179 61.934 105.087 61.8821 105.007 61.8138L101.279 58.617C101.192 58.5419 101.121 58.4488 101.073 58.344C101.025 58.2392 101 58.1252 101 58.0098C101 57.8945 101.025 57.7805 101.073 57.6757C101.121 57.5709 101.192 57.4777 101.279 57.4026L105.007 54.1994C105.087 54.1297 105.179 54.0764 105.279 54.0427C105.38 54.009 105.486 53.9955 105.591 54.003C105.697 54.0105 105.8 54.0388 105.894 54.0864C105.989 54.134 106.073 54.1998 106.142 54.2801C106.211 54.3604 106.263 54.4536 106.295 54.5542C106.328 54.6549 106.34 54.761 106.332 54.8664C106.323 54.9718 106.294 55.0745 106.245 55.1685C106.196 55.2624 106.13 55.3458 106.049 55.4138L103.962 57.2058L109.804 57.2058C110.016 57.2058 110.22 57.2901 110.37 57.4401C110.52 57.5902 110.604 57.7936 110.604 58.0058C110.604 58.218 110.52 58.4215 110.37 58.5715C110.22 58.7215 110.016 58.8058 109.804 58.8058L103.957 58.8058L106.047 60.5978C106.127 60.6661 106.193 60.7495 106.24 60.8431C106.288 60.9367 106.317 61.0388 106.325 61.1436C106.333 61.2483 106.32 61.3537 106.288 61.4536C106.255 61.5535 106.203 61.646 106.135 61.7258C106.067 61.8057 105.983 61.8713 105.89 61.9189C105.796 61.9665 105.694 61.9953 105.589 62.0034C105.485 62.0116 105.379 61.9991 105.279 61.9665Z" fill="black"/>
<path d="M118.325 54.0393C118.424 54.0719 118.517 54.1238 118.597 54.192L122.325 57.3888C122.412 57.4639 122.483 57.5571 122.531 57.6619C122.579 57.7667 122.604 57.8807 122.604 57.996C122.604 58.1114 122.579 58.2254 122.531 58.3302C122.483 58.435 122.412 58.5281 122.325 58.6032L118.597 61.8064C118.517 61.8762 118.425 61.9295 118.324 61.9632C118.224 61.9969 118.118 62.0104 118.013 62.0029C117.907 61.9954 117.804 61.967 117.71 61.9194C117.615 61.8719 117.531 61.806 117.462 61.7257C117.393 61.6454 117.341 61.5523 117.308 61.4516C117.276 61.351 117.263 61.2449 117.272 61.1395C117.281 61.034 117.31 60.9314 117.359 60.8374C117.407 60.7434 117.474 60.66 117.555 60.592L119.642 58.8H113.8C113.588 58.8 113.384 58.7158 113.234 58.5657C113.084 58.4157 113 58.2122 113 58C113 57.7879 113.084 57.5844 113.234 57.4344C113.384 57.2843 113.588 57.2 113.8 57.2H119.646L117.557 55.408C117.477 55.3398 117.411 55.2564 117.364 55.1628C117.316 55.0691 117.287 54.967 117.279 54.8623C117.271 54.7575 117.284 54.6522 117.316 54.5523C117.349 54.4524 117.401 54.3599 117.469 54.28C117.537 54.2002 117.62 54.1346 117.714 54.087C117.808 54.0393 117.91 54.0106 118.015 54.0024C118.119 53.9943 118.225 54.0068 118.325 54.0393Z" fill="black"/>
<path d="M80.8139 34.5407C80.7501 34.3814 80.6383 34.2446 80.493 34.1481C80.3478 34.0516 80.176 34 80 34C79.824 34 79.6522 34.0516 79.507 34.1481C79.3618 34.2446 79.2499 34.3814 79.1861 34.5407L75.1099 44.7264L75.0942 44.762L73.0596 49.8439C72.9755 50.0535 72.9806 50.287 73.0738 50.493C73.167 50.6989 73.3406 50.8605 73.5564 50.9422C73.7723 51.0238 74.0127 51.0188 74.2247 50.9283C74.4368 50.8378 74.6032 50.6692 74.6873 50.4596L76.5141 45.9002H83.4859L85.3127 50.4596C85.3544 50.5634 85.4166 50.6582 85.496 50.7386C85.5754 50.8191 85.6703 50.8835 85.7753 50.9283C85.8803 50.9732 85.9933 50.9974 86.108 50.9998C86.2227 51.0022 86.3367 50.9826 86.4436 50.9422C86.5505 50.9017 86.6481 50.8413 86.7309 50.7642C86.8137 50.6871 86.8801 50.5949 86.9262 50.493C86.9724 50.391 86.9974 50.2812 86.9998 50.1698C87.0022 50.0584 86.9821 49.9477 86.9405 49.8439L84.939 44.8452C84.9216 44.7779 84.8958 44.7129 84.8622 44.6518L80.8139 34.5407ZM82.8083 44.2023H77.1934L80 37.1885L82.8083 44.2023Z" fill="black"/>
<path d="M74.3245 54.0393C74.4244 54.0719 74.517 54.1238 74.5968 54.192L78.3248 57.3888C78.4124 57.4639 78.4826 57.5571 78.5308 57.6619C78.579 57.7667 78.6039 57.8807 78.6039 57.996C78.6039 58.1114 78.579 58.2254 78.5308 58.3302C78.4826 58.435 78.4124 58.5281 78.3248 58.6032L74.5968 61.8064C74.5173 61.8762 74.4247 61.9295 74.3244 61.9632C74.2241 61.9969 74.1182 62.0104 74.0126 62.0029C73.9071 61.9954 73.8041 61.967 73.7096 61.9194C73.6152 61.8719 73.531 61.806 73.4622 61.7257C73.3933 61.6454 73.341 61.5523 73.3084 61.4516C73.2758 61.351 73.2634 61.2449 73.2721 61.1395C73.2807 61.034 73.3102 60.9314 73.3588 60.8374C73.4074 60.7434 73.4742 60.66 73.5552 60.592L75.6416 58.8H69.8C69.5878 58.8 69.3843 58.7158 69.2343 58.5657C69.0843 58.4157 69 58.2122 69 58C69 57.7879 69.0843 57.5844 69.2343 57.4344C69.3843 57.2843 69.5878 57.2 69.8 57.2H75.6464L73.5568 55.408C73.477 55.3398 73.4113 55.2564 73.3637 55.1628C73.3161 55.0691 73.2874 54.967 73.2792 54.8623C73.271 54.7575 73.2836 54.6522 73.3161 54.5523C73.3486 54.4524 73.4005 54.3599 73.4688 54.28C73.5371 54.2002 73.6204 54.1346 73.7141 54.087C73.8077 54.0393 73.9098 54.0106 74.0146 54.0024C74.1193 53.9943 74.2246 54.0068 74.3245 54.0393Z" fill="black"/>
<path d="M85.2793 61.9665C85.1794 61.934 85.0869 61.8821 85.0071 61.8138L81.2791 58.617C81.1915 58.5419 81.1213 58.4488 81.0731 58.344C81.0249 58.2392 81 58.1252 81 58.0098C81 57.8945 81.0249 57.7805 81.0731 57.6757C81.1213 57.5709 81.1915 57.4777 81.2791 57.4026L85.0071 54.1994C85.0866 54.1297 85.1792 54.0764 85.2795 54.0427C85.3798 54.009 85.4857 53.9955 85.5912 54.003C85.6968 54.0105 85.7998 54.0388 85.8942 54.0864C85.9887 54.134 86.0728 54.1998 86.1417 54.2801C86.2106 54.3604 86.2628 54.4536 86.2955 54.5542C86.3281 54.6549 86.3405 54.761 86.3318 54.8664C86.3231 54.9718 86.2937 55.0745 86.2451 55.1685C86.1965 55.2624 86.1297 55.3458 86.0487 55.4138L83.9623 57.2058L89.8039 57.2058C90.0161 57.2058 90.2195 57.2901 90.3696 57.4401C90.5196 57.5902 90.6039 57.7936 90.6039 58.0058C90.6039 58.218 90.5196 58.4215 90.3696 58.5715C90.2195 58.7215 90.0161 58.8058 89.8039 58.8058L83.9575 58.8058L86.0471 60.5978C86.1269 60.6661 86.1925 60.7495 86.2402 60.8431C86.2878 60.9367 86.3165 61.0388 86.3247 61.1436C86.3329 61.2483 86.3203 61.3537 86.2878 61.4536C86.2553 61.5535 86.2034 61.646 86.1351 61.7258C86.0668 61.8057 85.9834 61.8713 85.8898 61.9189C85.7962 61.9665 85.6941 61.9953 85.5893 62.0034C85.4846 62.0116 85.3792 61.9991 85.2793 61.9665Z" fill="black"/>
<path d="M116 21L112 11L108 21M114.4 17.6667H109.6" stroke="black" stroke-width="1.2" stroke-linecap="round" stroke-linejoin="round"/>
<path d="M149 23L143.5 9L138 23M146.8 18.3333H140.2" stroke="black" stroke-width="1.4" stroke-linecap="round" stroke-linejoin="round"/>
<defs>
<clipPath id="clip0_2001_2185">
<rect width="32" height="32" fill="white" transform="translate(128 32)"/>
</clipPath>
</defs>
</svg>
