<svg width="280" height="240" viewBox="0 0 280 240" fill="none" xmlns="http://www.w3.org/2000/svg">
<g clip-path="url(#clip0_59_2868)">
<mask id="mask0_59_2868" style="mask-type:alpha" maskUnits="userSpaceOnUse" x="0" y="0" width="280" height="240">
<path d="M198.308 52.9314C183.44 45.1132 169.439 35.5542 155.751 25.4384C128.379 4.87424 98.3106 -3.85742 71.5864 1.9954C43.5995 8.12624 20.2415 26.1961 8.44288 50.4698C-3.35552 74.7427 -1.86045 104.031 9.69708 129.323C21.8561 155.798 41.4213 183.746 68.8337 204.256C82.4414 214.479 97.3862 222.187 112.855 228.736C151.503 245.099 177.964 241.097 207.435 230.75C236.703 220.424 260.604 202.799 272.402 178.526C284.2 154.252 281.931 128.058 267.86 106.437C253.869 84.9387 228.106 68.449 198.308 52.9314Z" fill="white"/>
</mask>
<g mask="url(#mask0_59_2868)">
<path d="M280 0H0V240H280V0Z" fill="#398BD5"/>
<path d="M231.976 102.498C229.509 98.2239 225.628 94.9691 221.824 91.8175C213.764 85.1281 205.711 78.4381 197.65 71.7487C192.844 67.7659 187.893 63.6891 181.965 61.7273C181.956 61.7273 181.939 61.7187 181.931 61.7187C180.089 61.1109 178.162 60.8193 176.226 60.8193H113.031C109.065 60.8193 105.253 62.327 102.366 65.0422C97.2002 69.8899 88.8056 77.6591 83.5883 81.3933C67.6035 92.8365 46.0848 91.4749 27.1959 96.931C25.0714 97.5474 22.8099 98.3614 21.602 100.211C20.5569 101.796 20.5055 103.817 20.4884 105.719C20.437 111.483 20.3856 117.248 20.3342 123.012C20.3171 124.657 20.3171 126.361 21.0024 127.86C22.2616 130.584 25.397 131.834 28.2924 132.631C42.4784 136.554 57.4865 135.766 72.1953 135.175C100.181 134.044 128.202 133.719 156.215 134.19C171.369 134.447 186.54 134.926 201.685 134.275C209.326 133.95 216.967 133.325 224.54 132.237C227.084 131.868 230.759 131.903 232.858 130.19C234.477 128.871 234.657 126.575 234.871 124.648C235.693 117.239 235.814 109.153 231.976 102.498Z" fill="#8BB9BB"/>
<path d="M229.971 117.872C209.018 118.523 188.038 118.035 167.077 117.787C128.339 117.316 89.5849 117.641 50.8734 118.772C40.7394 119.071 30.5111 119.414 20.3685 119.2C20.3599 120.468 20.3428 121.744 20.3342 123.012C20.3171 124.656 20.3171 126.361 21.0024 127.86C22.2616 130.583 25.397 131.834 28.2924 132.631C42.4784 136.553 57.4865 135.765 72.1953 135.174C100.181 134.044 128.202 133.718 156.215 134.189C171.369 134.446 186.54 134.926 201.685 134.275C209.326 133.949 216.967 133.324 224.54 132.236C227.084 131.868 230.759 131.903 232.858 130.189C234.477 128.87 234.657 126.575 234.871 124.648C235.119 122.369 235.308 120.031 235.334 117.684C233.552 117.753 231.761 117.812 229.971 117.872Z" fill="#79AAAD"/>
<path d="M72.1937 135.166C74.9868 135.055 77.7792 134.952 80.5631 134.858C80.1864 129.616 77.9679 124.751 74.2155 120.999C70.0865 116.871 64.5956 114.601 58.7532 114.601C52.911 114.601 47.42 116.871 43.291 120.999C39.6331 124.657 37.4316 129.385 36.9775 134.473C48.5336 136.237 60.4579 135.637 72.1937 135.166Z" fill="#609899"/>
<path d="M71.0232 148.707C77.7942 141.937 77.7942 130.96 71.0232 124.19C64.2521 117.42 53.2741 117.42 46.5031 124.19C39.7321 130.96 39.7321 141.937 46.5031 148.707C53.2741 155.476 64.2521 155.476 71.0232 148.707Z" fill="#353535"/>
<path d="M65.6926 143.377C69.5201 139.55 69.5201 133.346 65.6926 129.519C61.8655 125.693 55.6609 125.693 51.8337 129.519C48.0066 133.346 48.0066 139.55 51.8337 143.377C55.6609 147.203 61.8655 147.203 65.6926 143.377Z" fill="#DDDFDE"/>
<path d="M64.2695 141.953C67.3108 138.912 67.3108 133.983 64.2695 130.943C61.2287 127.902 56.2984 127.902 53.2575 130.943C50.2166 133.983 50.2166 138.912 53.2575 141.953C56.2984 144.994 61.2287 144.994 64.2695 141.953Z" fill="#919191"/>
<path d="M168.224 120.991C164.609 124.605 162.416 129.265 161.928 134.284C175.18 134.541 188.441 134.841 201.685 134.267C202.927 134.216 204.169 134.156 205.42 134.079C204.889 129.136 202.713 124.554 199.14 120.982C195.012 116.854 189.52 114.584 183.678 114.584C177.845 114.593 172.353 116.863 168.224 120.991Z" fill="#609899"/>
<path d="M195.939 148.71C202.71 141.94 202.71 130.964 195.939 124.194C189.168 117.424 178.191 117.424 171.42 124.194C164.649 130.964 164.649 141.94 171.42 148.71C178.191 155.481 189.168 155.481 195.939 148.71Z" fill="#353535"/>
<path d="M190.609 143.38C194.436 139.554 194.436 133.35 190.609 129.523C186.782 125.697 180.576 125.697 176.749 129.523C172.922 133.35 172.922 139.554 176.749 143.38C180.576 147.207 186.782 147.207 190.609 143.38Z" fill="#DDDFDE"/>
<path d="M189.185 141.957C192.226 138.916 192.226 133.987 189.185 130.946C186.145 127.906 181.214 127.906 178.173 130.946C175.132 133.987 175.132 138.916 178.173 141.957C181.214 144.997 186.145 144.997 189.185 141.957Z" fill="#919191"/>
<path d="M105.055 66.9005L88.6853 86.5751C87.7512 87.6972 88.574 89.3756 90.0643 89.3756H183.781C185.254 89.3756 186.085 87.7311 185.177 86.6009L169.372 66.9606C168.481 65.8556 167.119 65.2043 165.671 65.2043H108.705C107.292 65.2043 105.946 65.8298 105.055 66.9005Z" fill="#609899"/>
<path d="M90.0644 88.1681C89.7306 88.1681 89.585 87.9452 89.542 87.8513C89.4823 87.7315 89.4479 87.5431 89.6108 87.346L105.981 67.6714C106.649 66.8746 107.643 66.4124 108.705 66.4124H165.672C166.742 66.4124 167.779 66.9004 168.43 67.7144L184.235 87.3546C184.389 87.5517 184.355 87.7396 184.295 87.8599C184.252 87.9538 184.107 88.1681 183.772 88.1681H90.0644Z" fill="#353535"/>
<path d="M205.171 86.447L184.954 66.5581C184.072 65.6931 182.864 65.2051 181.613 65.2051H177.047C176.405 65.2051 176.045 65.916 176.439 66.404L192.638 86.5409C194.077 88.3315 196.287 89.3764 198.626 89.3764H203.903C205.488 89.3764 206.276 87.5347 205.171 86.447Z" fill="#609899"/>
<path d="M198.635 88.1681C196.673 88.1681 194.789 87.2773 193.59 85.7868L178.342 66.8322C178.205 66.6604 178.324 66.4124 178.547 66.4124H181.622C182.556 66.4124 183.464 66.7807 184.124 67.4228L204.34 87.3117C204.537 87.5001 204.512 87.6972 204.452 87.8341C204.409 87.9366 204.272 88.1681 203.921 88.1681H198.635Z" fill="#353535"/>
<path d="M20.9085 101.804C21.9878 103.003 23.9324 102.558 25.4658 102.036C30.2629 100.4 35.1886 98.9603 40.26 98.7638C44.6202 98.592 48.9634 99.3544 53.3237 99.6545C57.6839 99.9541 62.2241 99.7399 66.1306 97.7871C68.7178 96.4937 70.8675 94.498 73.1978 92.7847C76.3928 90.4293 79.734 88.4679 82.8264 85.9928C83.6572 85.3334 84.2914 84.6054 84.9852 83.7914C85.8505 82.781 87.2037 81.1702 86.5953 79.7141C86.0472 78.4126 84.351 78.7552 83.1864 78.781C80.9846 78.8234 78.7575 79.0634 76.5729 79.0376C72.992 79.0032 69.7196 77.1536 66.3021 76.091C61.3674 74.5581 55.8335 74.7208 51.2078 77.0161C48.3466 78.4379 45.9309 80.5882 43.2925 82.3869C39.6175 84.8964 35.4713 86.738 31.1453 87.7828C28.7296 88.3654 26.1939 88.7337 24.0866 90.0529C21.9792 91.3802 20.9684 93.5047 21.0884 95.9369C21.1569 97.7699 19.5293 100.279 20.9085 101.804Z" fill="white"/>
<path d="M235.153 100.082C234.93 98.5231 234.254 97.0246 233.56 95.5937C232.814 94.078 232.001 92.5446 230.716 91.4482C229.927 90.7717 229.002 90.2922 228.128 89.7354C225.79 88.2364 223.845 86.1634 221.421 84.8189C219.202 83.5856 216.693 83.0031 214.302 82.1295C211.261 81.016 208.391 79.4058 205.856 77.3843C204.451 76.2621 203.055 74.9773 201.298 74.6348C200.81 79.474 204.811 83.0971 208.272 85.7183C212.855 89.1873 217.446 92.6562 222.029 96.1252C224.291 97.838 226.552 99.5427 228.805 101.255C230.081 102.223 232.754 105.324 234.433 103.619C235.016 103.029 235.204 102.155 235.23 101.333C235.247 100.904 235.213 100.494 235.153 100.082Z" fill="white"/>
<path d="M189.203 64.382C189.314 63.1745 187.849 61.3758 187.378 60.7933C186.196 59.3458 185.014 57.8983 183.72 56.5361C181.133 53.8043 178.006 51.3544 174.357 50.2494C170.623 49.1188 167.067 49.0246 163.178 48.9732C158.989 48.9132 154.569 48.3051 150.449 49.0503C148.461 49.41 146.439 49.3758 144.435 49.8126C142.371 50.2666 140.323 50.8404 138.207 51.0631C134.206 51.4914 130.197 50.6349 126.206 50.0781C121.049 49.3587 114.984 49.0503 111.249 53.3158C110.058 54.6778 109.055 56.2107 107.745 57.444C106.409 58.7117 104.644 59.8424 104.37 61.6583C104.318 61.9836 104.336 62.3519 104.55 62.6005C104.927 63.0376 105.629 62.8835 106.177 62.695C113.502 60.2107 121.383 60.0223 129.007 60.8534C132.862 61.2727 136.554 61.9584 140.426 62.1383C144.572 62.3353 148.727 62.549 152.873 62.7289C158.012 62.9517 163.161 63.0972 168.301 63.0548C172.558 63.0204 176.867 62.8491 181.048 63.6797C183.224 64.1082 185.288 64.9903 187.464 65.3672C187.738 65.4188 188.029 65.4526 188.295 65.3672C188.912 65.1874 189.16 64.8277 189.203 64.382Z" fill="white"/>
<path d="M88.9078 89.2559C89.0191 89.2988 89.1217 89.3332 89.233 89.3761C90.9979 90.0526 92.8655 90.4124 94.6814 90.9262C94.7927 90.9606 94.9125 90.9949 94.9899 91.0717C95.0754 91.149 95.1098 91.2687 95.1608 91.3718C95.795 92.7764 97.885 92.5536 99.1276 92.4768C100.113 92.4167 101.115 92.3565 102.057 92.0655C102.28 91.9968 102.511 91.9114 102.665 91.7402C102.819 91.5689 102.879 91.3375 102.94 91.1147C103.308 89.5474 103.488 87.9286 103.453 86.3184C103.445 85.9925 103.41 85.6242 103.162 85.4105C102.957 85.2387 102.674 85.2049 102.408 85.1791C100.652 85.0336 98.8873 84.9477 97.123 84.9133C96.7371 84.9047 96.3173 84.9133 96.0094 85.1361C95.6493 85.4019 95.5553 85.8814 95.3494 86.2755C94.3901 88.0569 91.0323 87.7058 89.3362 87.4572C89.1217 87.4228 88.8992 87.3804 88.6848 87.3547C88.1194 87.2859 87.8453 87.483 87.7599 88.0569C87.7083 88.3995 87.6911 88.6395 87.9996 88.8279C88.2651 89.0078 88.5908 89.1361 88.9078 89.2559Z" fill="#919191"/>
<path d="M22.7324 105.641C23.075 106.009 23.0237 117.829 22.8438 117.881C21.7986 118.164 20.7193 118.309 19.6314 118.309C19.4086 118.309 19.1602 118.292 19.0231 118.121C18.9203 118.001 18.9032 117.821 18.8861 117.658C18.5691 113.735 18.4235 109.796 18.4492 105.855C18.4578 104.57 22.2955 105.17 22.7324 105.641Z" fill="#919191"/>
<path d="M22.7333 105.642C22.5192 105.411 21.5083 105.153 20.5232 105.094C20.7973 106.687 20.7459 117.094 20.5746 117.137C20.0178 117.291 19.4438 117.402 18.8699 117.471C18.8785 117.539 18.8785 117.599 18.887 117.668C18.9042 117.83 18.9213 118.002 19.0241 118.13C19.1697 118.301 19.4182 118.318 19.6323 118.318C20.7116 118.318 21.7996 118.173 22.8447 117.89C23.0246 117.83 23.076 106.01 22.7333 105.642Z" fill="#DDDFDE"/>
<path d="M205.333 135.167C205.324 135.269 205.307 135.38 205.367 135.458C205.41 135.518 222.569 135.218 222.714 135.021C222.8 134.909 222.834 134.773 222.869 134.627C223.365 132.477 223.862 130.335 224.359 128.186C224.428 127.886 224.496 127.544 224.325 127.278C224.162 127.029 223.837 126.952 223.545 126.892C217.737 125.804 211.621 126.901 206.344 129.548C206.001 129.719 205.65 129.908 205.384 130.181C204.708 130.875 205.119 131.629 205.265 132.443C205.419 133.351 205.444 134.267 205.333 135.167Z" fill="#79AAAD"/>
<path d="M232.524 116.151C232.532 116.459 232.549 116.785 232.626 117.033C232.695 117.256 232.806 117.384 232.918 117.487C233.594 118.121 234.365 118.198 235.059 117.701C235.171 117.624 235.282 117.53 235.359 117.341C235.488 117.068 235.522 116.648 235.548 116.254C235.693 113.847 235.548 111.397 235.333 109.016C235.308 108.759 235.29 108.502 235.222 108.279C235.111 107.903 232.43 107.945 232.352 108.81C232.267 109.736 232.352 111.046 232.387 111.971C232.438 113.367 232.481 114.755 232.524 116.151Z" fill="#F4684D"/>
<path d="M280 229.799V135.283C277.39 132.764 274.788 130.246 272.178 127.727C268.581 124.258 265.172 120.027 260.708 117.646C257.953 116.18 254.595 115.418 251.567 116.446C248.43 117.499 246.781 120.917 244.902 123.41C242.717 126.314 240.395 129.132 237.751 131.633C233.781 135.377 228.959 138.4 223.603 139.386C219.267 140.182 214.82 139.608 210.424 139.411C206.326 139.223 202.211 139.368 198.147 139.917C194.312 140.439 190.63 141.784 186.821 142.187C181.082 142.794 175.59 140.593 169.833 141.03C164.74 141.416 159.766 142.718 154.725 143.463C147.557 144.516 140.287 144.456 133.068 145.013C127.839 145.416 122.636 146.144 117.399 146.221C106.991 146.375 96.6608 142.478 86.985 138.94C81.3731 136.884 76.2805 134.82 71.4931 131.137C65.3798 126.425 59.8276 120.677 52.5497 117.774C48.4686 116.146 44.1918 115.778 39.6515 117.765C36.7181 119.05 34.5585 121.56 32.4924 123.984C28.4112 128.798 24.3214 133.612 20.2403 138.426C16.8478 142.426 13.0301 144.311 8.07322 146.05C7.52902 146.238 6.98487 146.444 6.44922 146.667V229.799H280Z" fill="white"/>
<path d="M245.462 240.268V144.122C242.832 141.604 240.211 139.086 237.58 136.568C233.957 133.099 230.522 128.867 226.025 126.486C223.249 125.021 219.865 124.259 216.816 125.287C213.655 126.341 211.993 129.758 210.1 132.25C207.898 135.154 205.559 137.972 202.895 140.473C198.895 144.217 194.037 147.24 188.641 148.225C184.272 149.021 179.792 148.447 175.363 148.25C171.234 148.062 167.088 148.208 162.993 148.756C159.129 149.279 155.42 150.623 151.582 151.026C145.8 151.634 140.266 149.433 134.467 149.869C129.335 150.255 124.324 151.557 119.244 152.302C112.023 153.355 104.699 153.296 97.4256 153.852C92.1572 154.255 86.9146 154.983 81.6376 155.06C71.1524 155.214 60.7445 151.317 50.9957 147.779C45.3419 145.724 40.2106 143.66 35.3877 139.977C29.2285 135.266 23.6347 129.518 16.3018 126.614C13.6436 125.563 10.903 125.036 8.06152 125.333V240.268H245.462Z" fill="white"/>
<path d="M80.6417 135.577C80.6159 136.014 80.5729 136.502 80.8384 136.853C81.0184 137.101 81.3183 137.23 81.6096 137.324C83.1085 137.812 86.4921 137.402 86.5953 137.384C91.6493 136.776 161.988 136.57 161.953 135.825C161.842 133.744 162.176 131.671 162.39 129.598C162.399 129.513 162.408 129.418 162.357 129.35C162.305 129.281 162.219 129.264 162.142 129.238C161.046 128.99 159.898 128.922 158.784 128.793C153.704 128.219 148.633 127.663 143.544 127.157C138.465 126.652 133.376 126.198 128.279 125.838C123.191 125.478 118.103 125.222 113.005 125.093C107.917 124.965 102.828 124.982 97.7486 125.179C92.6602 125.376 87.5804 125.744 82.5259 126.343C80.8986 126.532 78.9112 127.14 79.5023 129.067C80.179 131.277 80.7959 133.23 80.6417 135.577Z" fill="#79AAAD"/>
<path d="M166.915 120.314C166.898 120.314 166.88 120.314 166.864 120.314C166.306 120.288 165.878 119.817 165.904 119.26C166.221 112.674 170.419 106.653 176.604 103.92C178.805 102.944 181.195 102.156 183.697 101.582C187.115 100.794 189.496 97.7872 189.479 94.2844V94.1555C189.462 90.9179 188.339 87.7405 186.301 85.2138C181.203 78.8836 171.935 67.3206 170.65 65.7018C170.307 65.2648 170.376 64.6312 170.813 64.2887C171.25 63.9461 171.883 64.0143 172.226 64.4514C173.52 66.0702 182.78 77.6331 187.869 83.9547C190.19 86.8326 191.475 90.4557 191.492 94.1469V94.2758C191.501 96.417 190.772 98.5153 189.444 100.194C188.117 101.873 186.241 103.055 184.151 103.543C181.769 104.092 179.507 104.845 177.417 105.761C171.926 108.186 168.191 113.531 167.917 119.364C167.891 119.895 167.446 120.314 166.915 120.314Z" fill="#79AAAD"/>
<path d="M79.6823 127.337C79.2196 127.337 78.7998 127.012 78.6972 126.541C77.9948 123.209 77.3692 115.8 77.0183 109.975C76.821 106.738 76.6926 103.663 76.6496 101.333C76.5813 97.2987 76.7866 96.8021 76.8979 96.5363C77.438 95.2515 79.9048 92.9562 85.156 88.845L85.3957 88.6566C85.8326 88.314 86.4668 88.3908 86.8097 88.8279C87.152 89.2644 87.0751 89.8985 86.6382 90.241L86.398 90.4295C80.3245 95.1747 78.9971 96.7677 78.7568 97.2901C78.5601 98.0612 78.6026 103.046 79.0395 110.113C79.3824 115.774 79.9908 122.943 80.6588 126.113C80.77 126.652 80.4277 127.192 79.8876 127.303C79.8193 127.329 79.7505 127.337 79.6823 127.337Z" fill="#79AAAD"/>
<path d="M103.454 86.3184C103.445 85.9925 103.411 85.6242 103.162 85.4105C102.957 85.2387 102.675 85.2049 102.409 85.1791C100.653 85.0336 98.8878 84.9477 97.1234 84.9133C96.7381 84.9047 96.3183 84.9133 96.0099 85.1361C95.7014 85.3589 95.5901 85.7445 95.4359 86.0956C95.3074 87.1662 95.042 88.2196 95.0586 89.3074C95.0672 90.1466 95.2301 90.9606 95.4273 91.7745C96.2496 92.7334 98.0311 92.545 99.1366 92.4768C100.122 92.4167 101.124 92.3565 102.066 92.0655C102.289 91.9968 102.52 91.9114 102.675 91.7402C102.829 91.5689 102.888 91.3375 102.949 91.1147C103.317 89.5474 103.488 87.9286 103.454 86.3184Z" fill="#DDDFDE"/>
<path d="M167.753 152.203C168.044 153.899 168.335 155.68 167.71 157.299C167.547 157.728 167.299 158.155 166.862 158.378C166.323 158.652 165.637 158.532 165.08 158.284C163.11 157.402 162.348 155.278 161.791 153.368C157.165 137.505 153.044 121.522 149.858 105.376C149.147 101.787 148.487 98.1474 148.882 94.5157C149.027 93.1622 149.344 91.7834 150.226 90.6784C151.485 89.0935 153.807 88.323 155.966 88.5624C157.833 88.7595 159.846 89.7018 161.054 91.0124C162.014 92.0486 161.868 93.479 161.911 94.7466C162.065 99.3893 162.305 104.023 162.613 108.657C163.23 117.976 164.155 127.286 165.389 136.554C166.082 141.787 166.871 147.004 167.753 152.203Z" fill="#006D89"/>
<path d="M131.928 150.849C131.286 152.861 130.592 154.942 129.076 156.545C128.356 157.315 127.422 157.966 126.334 158.18C125.247 158.403 124.004 158.112 123.353 157.315C122.54 156.313 122.839 154.917 123.165 153.701C126.806 140.262 129.65 126.66 131.688 112.964C132.408 108.125 133.033 103.251 134.344 98.506C134.986 96.1935 135.817 93.8552 137.428 91.9535C139.038 90.0523 141.566 88.63 144.195 88.7503C145.754 88.827 147.999 89.7865 148.093 91.3967C148.127 92.0566 147.759 92.7331 147.579 93.3666C147.279 94.4034 147.082 95.474 146.842 96.5274C145.823 100.947 144.769 105.349 143.664 109.752C141.437 118.6 139.029 127.414 136.443 136.185C134.995 141.076 133.487 145.966 131.928 150.849Z" fill="#006D89"/>
<path d="M122.025 110.67C121.589 109.239 121.109 107.834 120.757 106.378C120.655 105.95 120.706 105.582 120.218 105.556C119.704 105.53 119.198 105.522 118.685 105.504C118.436 105.496 115.686 105.385 115.686 105.376C115.635 106.661 115.438 107.937 115.438 109.23C115.438 110.635 115.498 112.1 115.703 113.496C115.858 114.584 116.021 115.825 117.169 116.322C117.58 116.502 118.017 116.382 118.23 115.997C118.359 115.765 118.522 115.774 118.753 115.817C118.976 115.86 119.267 115.868 119.439 115.714C119.558 115.611 119.576 115.423 119.695 115.32C119.85 115.192 120.046 115.226 120.235 115.201C120.62 115.149 121.066 114.995 121.203 114.601C121.237 114.498 121.255 114.378 121.331 114.293C121.443 114.172 121.623 114.172 121.777 114.113C122.085 113.992 122.214 113.624 122.283 113.299C122.428 112.614 122.471 112.168 122.274 111.492C122.197 111.218 122.111 110.943 122.025 110.67Z" fill="#FFB082"/>
<path d="M121.426 105.136C121.588 104.588 121.546 103.929 121.623 103.355C122.557 96.3479 123.242 89.2902 124.681 82.3522C125.555 78.1299 126.445 74.0526 126.565 69.7358C126.626 67.7315 126.523 65.5473 125.264 63.9881C124.099 62.5492 122.179 61.9586 120.346 61.6928C119.909 61.6327 119.456 61.5817 119.027 61.7014C118.145 61.95 117.622 62.8322 117.245 63.6628C115.84 66.815 115.446 70.3012 115.258 73.71C115.053 77.3159 115.104 80.939 115.061 84.5535C114.881 88.0053 114.984 91.4915 114.949 94.9519C114.915 98.3608 114.881 101.761 114.881 105.17C114.881 105.316 114.89 105.487 114.984 105.59C115.489 106.138 117.219 106.096 117.897 106.096C118.504 106.096 119.121 106.035 119.721 105.916C120.141 105.83 121.074 105.736 121.331 105.35C121.366 105.299 121.4 105.221 121.426 105.136Z" fill="#F4684D"/>
<path d="M163.239 96.9473C163.255 97.4697 163.264 98.0178 163.085 98.5064C162.811 99.2345 162.168 99.7397 161.534 100.177C158.159 102.472 154.175 103.671 150.209 104.656C144.487 106.078 138.319 107.089 132.819 104.964C132.519 104.845 132.211 104.716 132.006 104.468C131.671 104.082 131.671 103.517 131.68 103.003C131.877 94.0608 130.755 84.8447 126.463 77.0074C124.45 73.3328 121.777 70.0356 119.807 66.3352C118.685 64.2364 117.871 61.6415 119.105 59.4315C119.721 58.3352 120.629 57.453 121.546 56.5966C124.604 53.7526 127.868 51.1317 131.295 48.7592C132.811 47.7056 134.378 46.6949 136.118 46.0782C136.435 45.9668 136.76 45.8641 137.094 45.8555C137.625 45.8384 138.139 46.0439 138.627 46.2667C142.037 47.8684 144.718 50.6264 146.971 53.59C149.395 56.7765 151.794 60.0909 153.841 63.5427C157.645 69.9754 160.266 77.0761 161.765 84.3905C162.605 88.5193 163.102 92.7336 163.239 96.9473Z" fill="#F4684D"/>
<path d="M141.72 54.3789C139.185 54.0191 136.915 53.1026 135.784 50.9784C135.484 50.4217 135.356 49.8222 135.047 49.2826C134.525 48.3489 132.546 48.2033 133.497 47.3382C133.942 46.9357 136.161 45.8479 136.769 45.6166C139.433 44.6145 142.38 44.2633 145.301 44.0834C147.948 43.9121 150.612 43.8693 153.268 43.9549C155.469 44.0234 159.359 43.9807 161.329 44.9142C161.697 45.0856 161.029 45.214 161.269 45.5053C161.62 45.9164 161.757 46.4389 161.791 46.9442C161.963 49.6252 160.027 52.1091 157.08 53.2055C153.148 54.6613 148.179 54.7042 143.965 54.5759C143.202 54.533 142.449 54.4814 141.72 54.3789Z" fill="#F4684D"/>
<path d="M136.417 63.68C136.657 64.1857 136.888 64.6996 137.102 65.2134C138.79 69.2988 138.961 73.4958 139.004 77.8641C139.013 78.5584 139.021 79.2606 138.824 79.92C138.628 80.5793 138.207 81.2134 137.565 81.4872C137.145 81.6671 136.674 81.6757 136.228 81.7873C134.884 82.1299 133.984 83.346 133.153 84.4596C132.237 85.6843 131.277 86.8665 130.258 88.0139C129.65 88.7082 128.682 89.4362 127.902 88.9476C127.354 88.5965 127.276 87.8341 127.276 87.1833C127.294 84.1772 128.03 81.1618 127.954 78.1814C127.868 75.2005 127.38 72.3656 126.608 69.4872C126.24 68.1256 125.855 66.7635 125.684 65.3675C125.11 60.6566 127.045 55.9715 129.581 51.9543C129.864 51.5004 130.387 50.995 130.849 51.2691C131.012 51.3633 131.114 51.5432 131.192 51.7145C131.509 52.3997 131.672 53.1535 131.868 53.8813C132.862 57.3675 134.867 60.4252 136.417 63.68Z" fill="#006D89"/>
<path d="M130.095 44.9907C130.506 45.2477 130.832 45.6074 131.234 45.8815C131.868 46.3184 132.665 46.5068 133.23 47.0293C134.164 47.8944 134.181 49.3419 134.044 50.601C133.873 52.1856 133.556 53.7445 133.136 55.2865C132.699 56.8967 132.134 58.5155 131.054 59.7745C129.992 61.0164 128.51 61.8304 126.994 62.4467C125.075 63.2263 123.019 63.7316 120.946 63.7488C119.747 63.7573 118.428 63.5603 117.442 62.8408C116.209 61.9329 116.688 60.6824 116.518 59.3375C116.406 58.4382 115.944 57.5818 115.849 56.6567C115.678 55.0035 116.423 53.359 117.511 52.1085C118.599 50.8494 120.004 49.9158 121.383 48.9993C122.951 47.9543 124.492 46.9437 125.932 45.7274C127.028 44.8023 128.759 44.1856 130.095 44.9907Z" fill="#006D89"/>
<path d="M126.515 54.224C126.112 55.2087 125.504 56.0908 124.613 56.7679C122.592 58.3179 119.944 58.3265 117.752 57.1448C115.361 55.8514 113.665 53.4186 112.637 50.9604C112.2 49.9154 111.721 48.545 112.063 47.4144C112.363 46.4037 113.28 45.4958 114.077 44.8448C115.815 43.423 117.991 42.5236 120.227 42.3009C120.912 42.2324 121.606 42.2238 122.275 42.378C125.461 43.0975 126.832 46.3523 127.106 49.3073C127.252 50.9347 127.14 52.6992 126.515 54.224Z" fill="#FFB082"/>
<path d="M110.941 50.7985C110.958 50.8927 110.984 50.9869 111.035 51.064C111.095 51.1411 111.189 51.1925 111.284 51.1668C111.386 51.1411 111.455 51.0212 111.566 51.0212C111.643 51.0212 111.712 51.0897 111.754 51.1582C111.866 51.3039 111.96 51.4495 112.063 51.6036C112.149 51.7407 112.26 51.8948 112.423 51.8863C112.543 51.8777 112.628 51.7749 112.663 51.6636C112.697 51.5522 112.68 51.4323 112.671 51.321C112.569 50.336 112.817 49.3509 113.442 48.5715C113.459 48.5458 113.485 48.5201 113.485 48.4859C113.485 48.443 113.434 48.4174 113.4 48.3916C112.988 48.1861 112.603 48.0233 112.166 47.912C111.789 47.8178 111.343 47.5522 111.01 47.8863C110.864 48.0319 110.855 48.2717 110.838 48.4602C110.812 48.8113 110.795 49.1539 110.804 49.5051C110.804 49.9334 110.855 50.3702 110.941 50.7985Z" fill="#54241A"/>
<path d="M123.379 48.6999C123.414 48.7513 123.456 48.8113 123.516 48.8198C123.619 48.837 123.688 48.6999 123.782 48.6571C123.928 48.5886 124.082 48.7256 124.167 48.8541C124.262 48.9826 124.39 49.1368 124.545 49.1025C124.724 49.0597 124.758 48.8198 124.758 48.64C124.758 48.1775 124.827 47.7149 124.956 47.2696C125.024 47.0211 125.152 46.747 125.401 46.6785C125.572 46.6271 125.752 46.6957 125.881 46.8155C126.009 46.9355 126.086 47.0982 126.129 47.2696C126.335 48.0147 125.983 48.8113 126.026 49.5821C126.035 49.7364 126.061 49.8905 126.172 50.0019C126.232 50.0618 126.309 50.0961 126.378 50.1475C126.609 50.3188 126.66 50.6443 126.84 50.867C126.909 50.9526 127.011 51.0211 127.123 51.004C127.243 50.9869 127.328 50.8669 127.371 50.7556C127.414 50.6357 127.423 50.5072 127.483 50.3958C127.603 50.1475 127.894 50.0447 128.091 49.8477C128.305 49.6335 128.39 49.3338 128.442 49.034C128.562 48.3488 128.536 47.6464 128.699 46.9697C128.768 46.6957 128.862 46.4302 128.888 46.1561C128.913 45.822 128.836 45.488 128.742 45.171C128.527 44.4601 128.228 43.7578 127.74 43.201C127.688 43.1411 127.62 43.0725 127.542 43.0468C127.423 43.004 127.285 43.064 127.174 43.1154C126.318 43.5522 125.615 44.246 124.819 44.777C124.176 45.1968 123.465 45.5136 122.823 45.9333C122.574 46.0961 122.06 46.3702 121.983 46.6871C121.914 46.9869 122.42 47.3637 122.591 47.5779C122.865 47.9548 123.131 48.3231 123.379 48.6999Z" fill="#54241A"/>
<path d="M117.691 55.1748C117.58 55.1748 117.477 55.1576 117.425 55.141C117.203 55.0551 117.177 54.7039 117.125 54.0612C117.083 53.5133 117.023 52.8367 116.834 52.1514C116.808 52.0743 116.86 51.9887 116.937 51.963C117.014 51.9373 117.1 51.9887 117.125 52.0658C117.323 52.7767 117.382 53.5047 117.425 54.0274C117.451 54.3786 117.485 54.7727 117.545 54.8494C117.699 54.8924 118.325 54.8323 118.53 54.5756C118.582 54.5069 118.676 54.4983 118.745 54.5584C118.813 54.6094 118.822 54.7039 118.762 54.7727C118.53 55.0637 118.025 55.1748 117.691 55.1748Z" fill="#D17D4D"/>
<path d="M119.969 56.2622C119.893 56.2622 119.824 56.2026 119.815 56.1167C119.815 56.0313 119.875 55.9626 119.961 55.9626C120.912 55.9282 121.828 55.2861 122.188 54.4039C122.222 54.3266 122.308 54.2923 122.385 54.318C122.463 54.3524 122.496 54.4378 122.471 54.5151C122.068 55.5089 121.049 56.2284 119.969 56.2622C119.978 56.2622 119.978 56.2622 119.969 56.2622Z" fill="#D17D4D"/>
<path d="M119.653 51.381C120.003 51.8264 120.612 51.518 120.638 51.0298C120.655 50.6615 120.415 50.0962 119.952 50.139C119.601 50.1733 119.473 50.593 119.481 50.8842C119.49 51.0555 119.55 51.2439 119.653 51.381Z" fill="#06313C"/>
<path d="M114.855 53.025C114.898 53.0507 114.949 53.0764 115 53.085C115.198 53.1278 115.395 52.9479 115.472 52.7767C115.541 52.6225 115.523 52.4426 115.48 52.2799C115.395 51.9287 114.992 51.3977 114.606 51.7574C114.256 52.0829 114.427 52.6738 114.744 52.9479C114.778 52.9737 114.812 52.9993 114.855 53.025Z" fill="#06313C"/>
<path d="M119.49 48.2365C119.284 48.2707 119.096 48.3306 118.95 48.4335C118.771 48.5705 118.702 48.8703 118.882 49.0244C118.976 49.1101 119.113 49.1358 119.25 49.1187C119.558 49.0929 119.858 48.9987 120.167 48.9645C120.398 48.9388 120.63 48.9302 120.869 48.9473C121.006 48.9559 121.323 49.0416 121.417 48.9045C121.486 48.8017 121.383 48.6818 121.306 48.6133C120.981 48.3564 120.552 48.2279 120.124 48.2021C119.936 48.2021 119.704 48.2022 119.49 48.2365Z" fill="#54241A"/>
<path d="M113.854 50.7888C114.042 50.5918 114.23 50.4376 114.488 50.3263C114.702 50.2406 114.925 50.1807 115.147 50.1121C115.387 50.0351 115.421 49.7952 115.233 49.641C115.062 49.504 114.821 49.4783 114.616 49.5383C114.41 49.5982 114.222 49.7267 114.051 49.8638C113.871 50.018 113.691 50.1807 113.579 50.3948C113.477 50.5918 113.348 51.3456 113.725 50.9344C113.759 50.883 113.811 50.8402 113.854 50.7888Z" fill="#54241A"/>
<path d="M125.05 33.3934C125.418 33.3849 125.787 33.3506 126.138 33.2307C127.106 32.9052 127.791 31.9545 127.945 30.9352C128.1 29.9245 127.783 28.8795 127.234 28.0144C126.926 27.5262 126.523 27.0808 126 26.841C125.512 26.6097 124.947 26.584 124.408 26.6612C123.431 26.7982 122.497 27.3121 121.897 28.1001C121.298 28.8881 121.066 29.9588 121.332 30.9095C121.76 32.4084 123.542 33.4363 125.05 33.3934Z" fill="#006D89"/>
<path d="M124.467 34.2671C124.432 33.5476 124.424 32.8024 124.141 32.1343C123.61 30.8752 122.171 30.1814 120.8 30.1986C119.438 30.2243 118.144 30.841 117.014 31.6033C113.399 34.0272 110.889 38.0443 110.307 42.3613C110.264 42.6953 110.229 43.055 110.34 43.372C110.477 43.7574 110.803 44.0486 111.163 44.2456C111.72 44.5454 112.371 44.6482 113.005 44.691C115.429 44.8795 117.853 44.4255 120.209 43.8345C121.511 43.509 122.804 43.1407 123.995 42.524C124.886 42.0529 125.64 41.3934 125.426 40.3313C125.152 39.0294 124.869 37.736 124.681 36.4255C124.578 35.7146 124.501 34.9866 124.467 34.2671Z" fill="#006D89"/>
<path d="M127.68 41.0252C127.346 40.4856 126.883 40.0316 126.42 39.6034C126.223 39.4235 125.992 39.2351 125.735 39.2779C125.572 39.3036 125.435 39.4235 125.315 39.5348C122.171 42.3957 118.154 43.9545 113.87 43.5348C113.245 43.4749 112.594 43.4749 112.012 43.2179C111.472 42.9867 110.984 42.6783 110.478 42.3871C110.264 42.2586 110.024 42.1387 109.784 42.2072C109.493 42.2929 109.365 42.6183 109.279 42.9096C108.971 44.0659 108.893 45.2822 109.056 46.4642C109.133 47.0209 109.279 47.5862 109.63 48.0231C110.41 48.9824 111.746 48.9481 112.868 48.931C115.284 48.8881 117.794 48.4428 120.124 47.7918C121.949 47.2864 123.731 46.5327 125.298 45.462C126.643 44.5284 128.81 42.8839 127.68 41.0252Z" fill="#006D89"/>
<path d="M167.873 151.911C168.344 152.065 168.593 152.51 168.884 152.87C169.261 153.341 169.518 153.915 169.809 154.446C170.563 155.808 171.403 157.119 172.199 158.446C172.721 159.388 173.287 160.605 173.304 161.701C173.313 162.275 173.107 162.883 172.653 163.243C172.439 163.414 172.182 163.517 171.925 163.611C170.974 163.953 169.946 164.1 168.944 163.953C167.942 163.808 166.974 163.363 166.28 162.635C165.56 161.89 165.14 160.861 164.31 160.245C163.179 159.405 161.654 159.585 160.789 158.318C160.566 157.984 160.412 157.598 160.429 157.196C160.446 156.742 160.677 156.322 160.789 155.877C160.917 155.38 160.874 154.866 160.814 154.36C160.772 153.975 160.823 153.615 160.797 153.23C160.763 152.707 160.737 152.159 160.986 151.697C161.037 151.602 161.105 151.517 161.2 151.465C161.303 151.414 161.423 151.405 161.542 151.431C162.065 151.526 162.39 152.048 162.827 152.356C164.549 153.607 166.16 151.346 167.873 151.911Z" fill="#F4684D"/>
<path d="M169.894 163.063C169.269 163.063 168.66 162.909 168.069 162.592C167.436 162.258 166.879 161.787 166.339 161.342C166.262 161.273 166.176 161.205 166.099 161.145C165.877 160.965 165.654 160.777 165.431 160.588C164.9 160.134 164.343 159.672 163.778 159.243L163.744 159.217C163.032 158.678 162.304 158.122 161.739 157.41C161.508 157.119 161.336 156.802 161.165 156.502C161.088 156.374 161.019 156.246 160.942 156.117C160.899 156.049 160.925 155.954 160.993 155.912C161.062 155.869 161.156 155.894 161.199 155.963C161.276 156.092 161.354 156.228 161.43 156.357C161.602 156.665 161.765 156.956 161.979 157.23C162.519 157.916 163.23 158.464 163.924 158.987L163.957 159.012C164.523 159.44 165.08 159.912 165.62 160.365C165.842 160.554 166.057 160.734 166.279 160.922C166.356 160.991 166.442 161.059 166.519 161.119C167.042 161.556 167.59 162.018 168.198 162.335C168.952 162.738 169.749 162.858 170.571 162.704C170.905 162.635 171.248 162.524 171.582 162.378C172.181 162.104 172.644 161.659 172.892 161.128C172.927 161.05 173.013 161.017 173.089 161.05C173.167 161.085 173.201 161.171 173.167 161.247C172.892 161.847 172.37 162.344 171.71 162.644C171.359 162.807 170.999 162.918 170.639 162.995C170.391 163.046 170.143 163.063 169.894 163.063Z" fill="#A74735"/>
<path d="M164.626 153.736C164.378 153.29 164.121 152.845 163.966 152.357C163.812 151.868 163.77 151.337 163.932 150.849C164.258 149.89 165.346 149.368 166.365 149.333C166.734 149.325 167.11 149.368 167.41 149.573C167.83 149.864 167.984 150.395 168.13 150.884C168.524 152.16 169.226 153.248 169.8 154.447C169.826 154.507 169.732 154.704 169.706 154.772C169.68 154.832 169.612 154.867 169.552 154.892C168.541 155.303 167.487 155.603 166.417 155.792C165.791 155.903 165.765 155.757 165.466 155.235C165.192 154.738 164.909 154.233 164.626 153.736Z" fill="#F4684D"/>
<path d="M165.499 154.369C165.448 154.369 165.397 154.344 165.371 154.301C165.328 154.232 165.345 154.138 165.422 154.096C166.442 153.461 167.615 153.042 168.806 152.887C168.892 152.879 168.96 152.939 168.977 153.016C168.986 153.102 168.926 153.17 168.849 153.188C167.701 153.333 166.57 153.736 165.585 154.352C165.559 154.369 165.525 154.369 165.499 154.369Z" fill="#A74735"/>
<path d="M166.468 155.748C166.417 155.748 166.365 155.722 166.339 155.671C166.296 155.602 166.322 155.508 166.4 155.466C167.436 154.883 168.609 154.566 169.8 154.558C169.886 154.558 169.946 154.626 169.954 154.703C169.954 154.788 169.886 154.857 169.809 154.857C168.67 154.874 167.539 155.174 166.545 155.731C166.519 155.739 166.494 155.748 166.468 155.748Z" fill="#A74735"/>
<path d="M167.282 156.948C167.231 156.948 167.18 156.922 167.145 156.87C167.102 156.794 167.137 156.708 167.205 156.665C168.19 156.151 169.296 155.851 170.401 155.8C170.486 155.791 170.555 155.86 170.555 155.945C170.555 156.031 170.495 156.099 170.409 156.099C169.338 156.151 168.276 156.434 167.334 156.931C167.325 156.948 167.3 156.948 167.282 156.948Z" fill="#A74735"/>
<path d="M168.233 158.19C168.182 158.19 168.13 158.164 168.096 158.113C168.053 158.035 168.087 157.95 168.156 157.907C169.089 157.402 170.16 157.264 171.18 157.196C171.265 157.188 171.334 157.256 171.342 157.333C171.351 157.419 171.283 157.487 171.205 157.496C170.22 157.565 169.184 157.693 168.301 158.172C168.284 158.19 168.258 158.19 168.233 158.19Z" fill="#A74735"/>
<path d="M131.046 151.431C131.209 151.328 131.363 151.277 131.492 151.32C131.723 151.397 131.723 151.714 131.681 151.953C131.483 153.153 131.518 154.395 131.775 155.577C131.86 155.962 131.971 156.348 131.955 156.742C131.929 157.795 131.055 158.643 130.147 159.166C129.265 159.68 128.288 160.005 127.346 160.408C125.521 161.187 123.816 162.241 121.957 162.952C120.835 163.379 119.61 163.688 118.428 163.44C117.246 163.192 116.149 162.258 116.038 161.058C115.969 160.305 116.286 159.559 116.741 158.952C117.195 158.343 117.785 157.855 118.334 157.341C118.968 156.75 119.567 156.125 120.133 155.465C120.964 154.489 121.786 153.136 123.105 152.887C124.621 152.605 126.078 152.159 127.611 152.639C128.022 152.767 128.425 152.956 128.862 152.93C129.324 152.904 129.727 152.622 130.07 152.313C130.25 152.15 130.67 151.662 131.046 151.431Z" fill="#F4684D"/>
<path d="M122.882 151.2C123.122 150.832 123.37 150.463 123.731 150.207C124.184 149.881 124.775 149.795 125.332 149.847C125.889 149.898 126.42 150.086 126.951 150.266C127.286 150.387 127.654 150.524 127.842 150.823C128.073 151.2 127.945 151.689 127.782 152.091C127.243 153.41 126.334 154.549 125.323 155.551C124.81 156.066 124.253 156.545 123.602 156.87C123.216 157.059 122.771 157.196 122.351 157.085C122.026 157.007 121.76 156.794 121.494 156.588C121.237 156.382 120.287 156.365 120.226 156.04C120.158 155.697 120.381 155.252 120.561 154.961C121.152 153.975 122.257 152.159 122.882 151.2Z" fill="#F4684D"/>
<path d="M119.413 162.155C119.327 162.164 119.242 162.164 119.156 162.164C117.768 162.207 116.672 161.727 116.072 160.819C116.029 160.751 116.046 160.656 116.115 160.613C116.183 160.571 116.278 160.588 116.32 160.656C117.014 161.71 118.239 161.898 119.147 161.864C120.441 161.822 121.743 161.436 122.737 161.102C123.816 160.742 124.853 160.211 126.018 159.449C126.883 158.875 127.928 158.232 129.136 157.753C130.087 157.376 131.063 156.939 131.62 156.082C131.663 156.014 131.757 155.997 131.826 156.04C131.894 156.082 131.911 156.177 131.869 156.245C131.26 157.179 130.232 157.633 129.238 158.027C128.057 158.489 127.029 159.132 126.181 159.688C124.998 160.468 123.928 161.008 122.831 161.376C121.88 161.71 120.655 162.07 119.413 162.155Z" fill="#A74735"/>
<path d="M126.909 154.061C126.874 154.061 126.841 154.052 126.815 154.035C125.35 153.05 123.577 152.682 122.369 152.485C122.283 152.468 122.232 152.391 122.24 152.314C122.257 152.228 122.334 152.177 122.412 152.186C123.645 152.383 125.461 152.759 126.978 153.779C127.046 153.821 127.063 153.915 127.02 153.984C126.995 154.035 126.952 154.061 126.909 154.061Z" fill="#A74735"/>
<path d="M125.932 155.132C125.898 155.132 125.855 155.124 125.83 155.098C124.844 154.318 123.542 153.796 121.838 153.505C121.752 153.488 121.7 153.41 121.718 153.333C121.735 153.248 121.812 153.196 121.889 153.213C123.645 153.513 124.99 154.053 126.018 154.867C126.086 154.918 126.095 155.012 126.043 155.081C126.018 155.107 125.975 155.132 125.932 155.132Z" fill="#A74735"/>
<path d="M124.835 156.408C124.793 156.408 124.758 156.399 124.724 156.374C123.791 155.543 122.565 154.935 121.178 154.601C121.101 154.584 121.049 154.498 121.066 154.421C121.084 154.344 121.169 154.293 121.246 154.31C122.685 154.652 123.953 155.286 124.93 156.151C124.99 156.202 124.998 156.305 124.938 156.365C124.913 156.391 124.87 156.408 124.835 156.408Z" fill="#A74735"/>
<path d="M123.945 157.393C123.911 157.393 123.876 157.385 123.851 157.367C122.763 156.639 121.564 156.1 120.287 155.774C120.21 155.757 120.159 155.671 120.176 155.595C120.193 155.517 120.279 155.466 120.355 155.483C121.666 155.825 122.9 156.374 124.014 157.119C124.082 157.162 124.099 157.256 124.056 157.325C124.03 157.367 123.988 157.385 123.945 157.393Z" fill="#A74735"/>
<path d="M171.488 52.5536C170.315 52.211 168.738 53.5044 168.062 54.2923C167.094 55.4231 166.031 56.4937 165.02 57.59C162.887 59.9197 160.763 62.258 158.63 64.5876C140.127 84.8104 113.134 114.327 97.4399 131.92C94.0906 135.671 91.5809 138.532 89.5247 140.93V141.881H93.6279C105.938 127.517 122.891 109.256 138.31 92.5452C146.611 83.5428 162.133 66.5581 171.539 56.5194C172.439 55.56 173.287 53.0847 171.488 52.5536Z" fill="#006D89"/>
<path d="M114.95 112.193C114.967 112.485 114.993 112.802 115.19 113.042C115.378 113.281 115.901 113.204 116.072 112.956C116.466 112.365 116.8 110.797 116.852 110.686C116.929 110.515 116.955 110.335 117.04 110.164C117.143 109.967 117.288 109.796 117.425 109.624C117.7 109.273 117.923 108.896 118.085 108.494C118.171 108.296 118.316 107.971 118.145 107.791C117.957 107.594 117.563 107.457 117.323 107.311C117.092 107.166 116.92 106.934 116.714 106.754C116.672 106.711 115.875 106.121 115.858 106.189C115.13 108.888 114.796 109.187 114.95 112.193Z" fill="#FFB082"/>
<path d="M101.338 143.055C101.543 143.287 101.758 143.526 101.86 143.826C102.014 144.28 101.877 144.785 101.706 145.239C101.055 146.969 99.9841 148.52 98.8104 149.95C97.8424 151.132 96.7891 152.246 95.6836 153.299C93.0969 155.749 90.1841 157.839 87.1175 159.654C85.5756 160.571 83.9994 161.411 82.3973 162.198C80.7442 163.012 80.2384 161.736 79.3818 160.52C78.731 159.586 78.0543 158.67 77.3605 157.762C76.0239 156.014 74.6019 154.327 73.1197 152.7C71.8863 151.346 70.5927 150.027 69.3937 148.64C69.2733 148.503 69.1449 148.349 69.1196 148.169C69.0766 147.843 69.3593 147.569 69.6162 147.363C73.8565 143.946 78.3542 140.845 82.5429 137.359C84.633 135.621 86.6462 133.788 88.488 131.792C88.8223 131.432 89.3102 130.67 89.867 130.661C90.4496 130.653 90.9467 131.509 91.289 131.886C92.3257 133.034 93.3538 134.182 94.3905 135.329C96.7031 137.899 99.0162 140.477 101.338 143.055Z" fill="#006D89"/>
<path d="M124.638 47.3891C124.724 46.9951 124.98 46.6182 125.366 46.4811C125.52 46.4298 125.691 46.4126 125.846 46.4726C126.077 46.5582 126.214 46.7895 126.308 47.0122C126.608 47.766 126.531 48.6225 126.283 49.3848C126.231 49.5304 126.171 49.6932 126.034 49.7702C125.872 49.8644 125.666 49.8045 125.503 49.7188C124.698 49.2991 124.458 48.2113 124.638 47.3891Z" fill="#FFB082"/>
<path d="M125.581 49.2302C125.495 49.2302 125.409 49.196 125.324 49.1361C125.281 49.1018 125.272 49.0418 125.307 48.999C125.341 48.9562 125.401 48.9476 125.444 48.9819C125.546 49.059 125.641 49.059 125.718 48.9647C125.838 48.8191 125.855 48.5279 125.692 48.3823C125.624 48.3138 125.529 48.2624 125.435 48.2024C125.255 48.0911 125.076 47.9797 124.981 47.7827C124.878 47.5686 124.904 47.3202 125.058 47.1232C125.221 46.9091 125.487 46.7892 125.718 46.832C125.769 46.8406 125.812 46.8919 125.795 46.9519C125.786 47.0033 125.735 47.0461 125.675 47.029C125.521 47.0033 125.332 47.0889 125.213 47.2431C125.161 47.3116 125.05 47.4915 125.152 47.6971C125.221 47.8427 125.375 47.9369 125.538 48.0311C125.64 48.0911 125.744 48.1511 125.82 48.2367C126.06 48.4679 126.043 48.8791 125.863 49.0932C125.786 49.1875 125.692 49.2302 125.581 49.2302Z" fill="#D17D4D"/>
<path d="M151.057 69.4534C150.663 70.3012 150.32 71.1833 150.226 72.1084C150.2 72.3484 150.218 72.648 150.431 72.7677C150.637 72.888 151.031 72.8021 151.177 72.6222C151.331 72.4424 151.588 72.2281 151.751 72.0483C152.282 71.4657 153.036 71.7401 153.438 72.4166C153.773 72.9734 153.815 73.6585 153.85 74.3012C153.884 75.012 153.832 75.7229 153.695 76.4166C153.653 76.6222 153.618 76.8536 153.747 77.0163C153.875 77.1704 154.115 77.1876 154.304 77.1103C154.501 77.0249 154.715 76.6308 154.929 76.6394C154.98 76.6394 155.023 76.6652 155.066 76.6824C155.657 76.939 156.026 76.5025 156.239 75.9967C156.317 75.8088 156.402 75.6289 156.48 75.4405C156.514 75.3546 156.548 75.2692 156.617 75.2091C156.702 75.1232 156.813 75.0888 156.917 75.0378C157.276 74.8579 157.507 74.4982 157.653 74.1213C157.704 73.993 157.756 73.8555 157.859 73.7616C157.927 73.7014 158.004 73.6671 158.09 73.6247C158.364 73.4786 158.621 73.2563 158.733 72.9648C158.87 72.6051 158.946 72.2453 158.981 71.8684C159.032 71.3975 159.049 70.9261 159.041 70.4553C159.032 70.0268 159.049 69.6075 159.024 69.179C158.964 68.2367 158.844 67.2859 158.912 66.3355C159.024 64.7763 159.589 63.106 158.861 61.7186C157.713 59.543 154.878 62.2926 154.167 63.6118C153.121 65.5473 151.965 67.4743 151.057 69.4534Z" fill="#FFB082"/>
<path d="M163.924 48.3312C164.249 49.9415 163.906 51.5946 163.52 53.1878C162.467 57.4534 161.071 61.6333 159.323 65.6671C159.272 65.7874 159.212 65.9157 159.126 66.0188C158.98 66.1987 158.749 66.2926 158.535 66.3699C156.745 66.9353 154.8 66.0698 153.284 64.9562C153.113 64.8365 152.941 64.691 152.89 64.494C152.864 64.3914 152.872 64.2797 152.89 64.1772C153.464 59.2693 154.509 54.4123 156.008 49.7017C156.359 48.5968 156.745 47.4833 157.421 46.5411C158.201 45.4533 159.717 44.2542 161.113 44.8109C162.544 45.3762 163.624 46.8494 163.924 48.3312Z" fill="#F4684D"/>
<path d="M123.156 50.926C123.439 50.9175 123.688 51.1487 123.73 51.4228C123.782 51.7654 123.516 52.0995 123.268 52.305C122.968 52.5534 122.583 52.7676 122.197 52.8275C121.966 52.8618 121.692 52.8361 121.538 52.6477C121.392 52.4678 121.426 52.2451 121.538 52.0566C121.777 51.6712 122.12 51.3286 122.523 51.1145C122.694 51.0202 122.934 50.926 123.156 50.926Z" fill="#F28B83"/>
<path d="M115.482 54.1982C115.31 54.0612 115.07 53.9759 114.882 53.9415C114.676 53.8986 114.453 53.8814 114.239 53.89C114.565 54.3528 114.916 54.7979 115.302 55.2092C115.43 55.149 115.533 55.0637 115.61 54.952C115.747 54.7125 115.704 54.3786 115.482 54.1982Z" fill="#F28B83"/>
<path d="M116.243 115.329C116.115 115.038 116.012 114.73 116.021 114.421C116.029 114.267 116.064 114.113 116.149 113.993C116.509 113.504 116.894 114.164 117.177 114.344C117.074 113.941 116.945 113.565 116.886 113.153C116.86 112.965 116.843 112.776 116.886 112.596C116.928 112.417 117.049 112.237 117.22 112.169C117.288 112.143 117.365 112.126 117.434 112.143C117.502 112.16 117.571 112.194 117.623 112.237C117.965 112.503 118.085 112.999 118.445 113.248C118.376 112.888 118.316 112.528 118.248 112.177C118.188 111.868 118.145 111.534 118.308 111.269C118.342 111.209 118.393 111.158 118.453 111.123C118.616 111.046 118.804 111.149 118.933 111.269C119.156 111.483 119.31 111.774 119.567 111.954C119.627 111.851 119.618 111.714 119.601 111.595C119.567 111.235 119.43 110.772 119.567 110.43C119.618 110.31 119.695 110.181 119.824 110.156C119.961 110.121 120.107 110.215 120.209 110.31C120.544 110.601 120.766 110.961 120.946 111.363C121.126 111.766 121.366 112.22 121.22 112.674C121.135 112.939 120.937 113.145 120.74 113.342C120.055 113.984 119.259 114.515 118.393 114.892C118.256 114.952 118.119 115.012 117.991 115.081C117.811 115.183 117.648 115.32 117.477 115.441C117.22 115.62 117.16 115.989 116.851 116.083C116.612 116.151 116.303 115.458 116.243 115.329Z" fill="#FFB082"/>
<path d="M145.66 54.7979C143.579 54.7979 141.214 54.4381 138.876 53.753C138.798 53.7273 138.747 53.6416 138.773 53.5645C138.798 53.4875 138.884 53.4361 138.961 53.4618C141.694 54.2583 144.461 54.6094 146.757 54.4553C146.843 54.4467 146.911 54.5155 146.919 54.5922C146.928 54.6781 146.86 54.7463 146.782 54.7549C146.414 54.7807 146.037 54.7979 145.66 54.7979Z" fill="#A74735"/>
<path d="M154.852 53.7358C154.844 53.7358 154.835 53.7358 154.827 53.7358C154.741 53.7192 154.689 53.6419 154.707 53.5562C155.126 51.3977 155.803 49.2821 156.711 47.2778C156.745 47.2008 156.831 47.1665 156.908 47.2008C156.985 47.2351 157.019 47.3207 156.985 47.3978C156.086 49.3764 155.417 51.4663 155.006 53.6076C154.981 53.6847 154.921 53.7358 154.852 53.7358Z" fill="#A74735"/>
<path d="M155.34 51.4232C155.254 51.4232 155.186 51.3547 155.186 51.2691C155.212 50.1556 155.297 49.0335 155.46 47.9371C155.469 47.8515 155.546 47.8001 155.632 47.8087C155.717 47.8173 155.769 47.8943 155.76 47.98C155.606 49.0678 155.52 50.1813 155.495 51.2776C155.495 51.3547 155.426 51.4232 155.34 51.4232Z" fill="#A74735"/>
<path d="M141.438 55.2006C141.369 55.2006 141.309 55.149 141.292 55.0809C141.275 55.0035 141.326 54.9182 141.404 54.901L143.759 54.3786C143.837 54.3614 143.922 54.4124 143.939 54.4897C143.956 54.567 143.905 54.6524 143.828 54.6696L141.472 55.192C141.455 55.2006 141.447 55.2006 141.438 55.2006Z" fill="#A74735"/>
<path d="M153.156 64.8795C153.105 64.8795 153.062 64.8537 153.036 64.8194C152.754 64.4172 152.787 63.9028 152.839 63.4062L152.933 62.5842C152.942 62.4983 153.019 62.4381 153.096 62.4553C153.182 62.4639 153.242 62.5412 153.224 62.618L153.13 63.4406C153.079 63.8943 153.054 64.3313 153.276 64.6395C153.328 64.7082 153.31 64.8022 153.242 64.8537C153.216 64.8709 153.182 64.8795 153.156 64.8795Z" fill="#A74735"/>
<path d="M158.321 64.0484C156.66 64.0484 154.997 63.6119 153.558 62.7807C153.49 62.7378 153.464 62.6438 153.507 62.5751C153.55 62.5069 153.644 62.4811 153.712 62.5241C155.391 63.4916 157.379 63.9115 159.298 63.6972C159.383 63.6886 159.452 63.7488 159.461 63.8341C159.469 63.92 159.409 63.9888 159.324 63.9968C158.998 64.0312 158.655 64.0484 158.321 64.0484Z" fill="#A74735"/>
<path d="M125.761 75.9798C125.709 75.9798 125.658 75.954 125.632 75.9111C123.439 72.4335 121.306 68.8534 119.284 65.2732C119.242 65.2045 119.268 65.1105 119.344 65.0676C119.413 65.0246 119.507 65.0504 119.55 65.1272C121.572 68.6993 123.705 72.2708 125.889 75.7484C125.932 75.8171 125.915 75.9111 125.838 75.954C125.82 75.9798 125.795 75.9798 125.761 75.9798Z" fill="#A74735"/>
<path d="M122.849 71.1233C122.814 71.1233 122.788 71.1152 122.763 71.098C121.897 70.4811 120.887 70.0527 119.842 69.8556C119.756 69.839 119.705 69.7617 119.722 69.6758C119.739 69.5904 119.816 69.5388 119.893 69.556C120.981 69.7531 122.034 70.2073 122.934 70.8494C123.003 70.901 123.019 70.995 122.968 71.0637C122.934 71.1066 122.891 71.1233 122.849 71.1233Z" fill="#A74735"/>
<path d="M117.64 103.989C116.851 103.946 116.072 103.792 115.318 103.526C115.241 103.5 115.198 103.415 115.224 103.338C115.249 103.261 115.335 103.218 115.412 103.244C117.049 103.826 118.788 103.852 120.587 103.321C120.663 103.295 120.749 103.346 120.775 103.424C120.8 103.5 120.749 103.586 120.672 103.612C119.652 103.912 118.633 104.04 117.64 103.989Z" fill="#A74735"/>
<path d="M143.818 103.192C143.741 103.192 143.681 103.132 143.673 103.054L143.604 102.447C143.133 98.087 142.756 94.6352 141.617 90.1981C141.6 90.1214 141.643 90.0354 141.728 90.0183C141.806 90.0011 141.891 90.044 141.908 90.1299C143.056 94.5836 143.433 98.044 143.904 102.421L143.973 103.029C143.981 103.115 143.922 103.183 143.836 103.192C143.827 103.192 143.827 103.192 143.818 103.192Z" fill="#A74735"/>
<path d="M139.912 103.44C137.446 103.44 135.064 103.131 132.819 102.523C132.742 102.498 132.691 102.421 132.717 102.335C132.742 102.249 132.819 102.206 132.905 102.232C137.6 103.508 142.911 103.431 148.273 102.018C152.822 100.81 157.422 98.6778 162.348 95.4912C162.417 95.4482 162.511 95.4654 162.554 95.5341C162.597 95.6023 162.579 95.6968 162.511 95.7398C157.559 98.943 152.925 101.093 148.342 102.301C145.489 103.063 142.654 103.44 139.912 103.44Z" fill="#A74735"/>
<path d="M115.232 43.2689C114.744 43.2689 114.264 43.2518 113.784 43.2089C112.825 43.1318 111.891 42.892 111.018 42.6436C110.94 42.6179 110.889 42.5408 110.915 42.4551C110.94 42.3695 111.018 42.3267 111.103 42.3524C112.088 42.6351 112.928 42.8406 113.81 42.9091C114.684 42.9777 115.566 42.9862 116.449 42.9263C118.222 42.8063 119.944 42.4295 121.58 41.8042C122.616 41.4102 123.421 40.9905 124.124 40.4851C124.21 40.4252 124.287 40.3653 124.373 40.2967C124.441 40.2453 124.536 40.2539 124.587 40.3224C124.638 40.3909 124.63 40.4852 124.561 40.5365C124.475 40.605 124.39 40.665 124.304 40.7335C123.584 41.256 122.753 41.6843 121.691 42.0869C120.029 42.7207 118.273 43.1061 116.474 43.226C116.063 43.2603 115.643 43.2689 115.232 43.2689Z" fill="#005267"/>
<path d="M124.253 32.8366C124.159 32.8366 124.099 32.7595 124.099 32.6824C124.125 32.1257 123.893 31.5604 123.456 31.1407C123.028 30.721 122.386 30.4555 121.752 30.4298C121.666 30.4298 121.606 30.3527 121.606 30.2756C121.606 30.19 121.675 30.13 121.76 30.13C122.48 30.1557 123.174 30.4469 123.662 30.9266C124.159 31.4062 124.424 32.0486 124.399 32.6996C124.399 32.7767 124.33 32.8366 124.253 32.8366Z" fill="#005267"/>
<path d="M128.09 57.6931C128.048 57.6931 127.996 57.6674 127.97 57.6335C127.919 57.5648 127.936 57.4703 128.005 57.4193C129.118 56.6053 129.786 55.3119 130.189 54.4126C131.063 52.4513 131.962 49.4706 131.217 46.3443C131.2 46.2672 131.251 46.1816 131.328 46.1644C131.405 46.1473 131.491 46.1987 131.508 46.2757C132.271 49.4792 131.362 52.537 130.463 54.5329C130.044 55.4666 129.349 56.8024 128.176 57.6588C128.15 57.676 128.124 57.6931 128.09 57.6931Z" fill="#005267"/>
<path d="M121.084 60.3402C119.713 60.3402 118.343 60.0916 117.049 59.6035C116.972 59.5778 116.929 59.4833 116.964 59.4065C116.989 59.3292 117.084 59.2862 117.16 59.3206C119.431 60.1855 121.958 60.2714 124.288 59.5692C124.365 59.5434 124.451 59.5863 124.476 59.6717C124.502 59.749 124.459 59.8344 124.373 59.8602C123.303 60.1855 122.198 60.3402 121.084 60.3402Z" fill="#005267"/>
<path d="M126.163 62.7982C126.111 62.7982 126.06 62.7724 126.026 62.7214C125.983 62.6441 126.017 62.5582 126.086 62.5158C128.544 61.2224 130.626 59.3034 132.099 56.948C132.142 56.8798 132.236 56.854 132.305 56.897C132.373 56.9394 132.399 57.0339 132.356 57.1026C130.857 59.5005 128.733 61.4624 126.232 62.781C126.206 62.7896 126.189 62.7982 126.163 62.7982Z" fill="#005267"/>
<path d="M130.892 67.3374C130.823 67.3374 130.755 67.2859 130.747 67.2177C130.601 66.4811 130.378 65.7358 130.164 65.025C130.027 64.5707 129.881 64.0999 129.761 63.6376C129.427 62.3613 129.273 61.2564 129.564 60.0655C129.581 59.9887 129.667 59.9372 129.744 59.9544C129.821 59.9715 129.873 60.0569 129.855 60.1342C129.573 61.265 129.727 62.327 130.053 63.5603C130.173 64.0225 130.31 64.4854 130.447 64.9391C130.669 65.6585 130.892 66.4038 131.038 67.1662C131.055 67.2521 131.003 67.3289 130.917 67.346C130.909 67.3374 130.901 67.3374 130.892 67.3374Z" fill="#005267"/>
<path d="M132.665 81.6155H132.657C132.571 81.6069 132.511 81.5387 132.52 81.4528C132.794 78.1465 132.289 74.7634 131.8 71.5001C131.791 71.4142 131.843 71.3374 131.928 71.3288C132.014 71.3202 132.091 71.3718 132.1 71.4571C132.588 74.7377 133.094 78.1379 132.82 81.4786C132.811 81.5559 132.742 81.6155 132.665 81.6155Z" fill="#005267"/>
<path d="M128.065 87.3294C128.022 87.3294 127.989 87.3122 127.954 87.2779C127.894 87.2177 127.903 87.1238 127.963 87.0636C129.205 85.8991 130.301 84.5971 131.235 83.1753C131.303 83.0722 131.364 82.9783 131.432 82.8752C132.023 81.9587 132.64 81.0164 133.625 80.5369C134.045 80.3313 134.508 80.2287 134.944 80.1343C135.193 80.0832 135.45 80.0231 135.689 79.9544C136.915 79.5861 137.891 78.7039 138.242 77.6505C138.268 77.5732 138.354 77.5308 138.431 77.556C138.508 77.5818 138.551 77.6677 138.525 77.7444C138.139 78.8838 137.086 79.8432 135.775 80.2373C135.518 80.3141 135.261 80.3742 135.013 80.4258C134.567 80.5198 134.147 80.6142 133.762 80.8027C132.854 81.2478 132.263 82.1557 131.689 83.0293C131.62 83.1324 131.56 83.2263 131.492 83.3294C130.541 84.7683 129.428 86.0956 128.168 87.2693C128.143 87.3122 128.108 87.3294 128.065 87.3294Z" fill="#005267"/>
<path d="M122.685 29.4878C122.668 29.4878 122.659 29.4878 122.642 29.4793C122.326 29.3764 122.009 29.248 121.717 29.0852C121.64 29.0424 121.615 28.9568 121.657 28.8797C121.7 28.8026 121.786 28.7769 121.863 28.8197C122.137 28.9739 122.437 29.0938 122.737 29.188C122.814 29.2137 122.857 29.2994 122.839 29.3764C122.805 29.4535 122.745 29.4878 122.685 29.4878Z" fill="#005267"/>
<path d="M124.226 28.0403C124.167 28.0403 124.115 28.006 124.089 27.9546C123.961 27.6977 123.935 27.3893 124.021 27.1066C124.047 27.0295 124.132 26.9867 124.209 27.0039C124.287 27.0295 124.329 27.1152 124.312 27.1923C124.252 27.3979 124.269 27.6206 124.363 27.8176C124.398 27.8947 124.372 27.9803 124.295 28.0231C124.269 28.0403 124.252 28.0403 124.226 28.0403Z" fill="#005267"/>
<path d="M126 28.3056C125.957 28.3056 125.914 28.2884 125.888 28.2542C125.837 28.1942 125.846 28.0915 125.905 28.04C126.171 27.8088 126.497 27.6546 126.839 27.5775C126.925 27.5604 127.002 27.6118 127.019 27.6889C127.036 27.766 126.985 27.8516 126.908 27.8687C126.608 27.9373 126.334 28.0743 126.103 28.2713C126.077 28.297 126.034 28.3056 126 28.3056Z" fill="#005267"/>
<path d="M127.045 30.9097H127.037C126.694 30.8841 126.351 30.7898 126.043 30.6356C125.966 30.6014 125.94 30.5072 125.975 30.4301C126.009 30.353 126.103 30.3273 126.18 30.3616C126.454 30.4986 126.754 30.5843 127.062 30.6014C127.148 30.61 127.208 30.6785 127.199 30.7641C127.191 30.8498 127.123 30.9097 127.045 30.9097Z" fill="#005267"/>
<path d="M125.872 32.6654C125.83 32.6654 125.787 32.6483 125.761 32.614C125.615 32.4513 125.513 32.2542 125.461 32.0487C125.444 31.9716 125.487 31.886 125.573 31.8688C125.65 31.8517 125.735 31.8945 125.752 31.9802C125.795 32.1429 125.872 32.2971 125.993 32.417C126.044 32.4769 126.044 32.5712 125.975 32.6311C125.941 32.6483 125.907 32.6654 125.872 32.6654Z" fill="#005267"/>
<path d="M124.526 30.4554C124.518 30.4554 124.501 30.4554 124.492 30.4554C124.415 30.4383 124.364 30.3526 124.381 30.2755L124.655 29.0678C124.672 28.9907 124.757 28.9393 124.835 28.9564C124.912 28.9736 124.963 29.0592 124.946 29.1363L124.672 30.344C124.655 30.404 124.595 30.4554 124.526 30.4554Z" fill="#005267"/>
<path d="M130.575 151.303C130.558 151.303 130.541 151.303 130.515 151.295C130.429 151.269 130.378 151.192 130.404 151.106C135.03 136.545 138.782 121.581 141.54 106.627C141.557 106.541 141.643 106.489 141.728 106.498C141.823 106.507 141.883 106.584 141.865 106.669C139.099 121.633 135.346 136.613 130.721 151.183C130.712 151.252 130.652 151.295 130.575 151.303Z" fill="#005267"/>
<path d="M162.177 150.215C162.1 150.215 162.031 150.172 162.014 150.104C157.774 135.14 154.21 119.834 151.426 104.596C151.409 104.511 151.477 104.433 151.563 104.425C151.657 104.408 151.743 104.468 151.76 104.554C154.544 119.783 158.108 135.08 162.348 150.035C162.374 150.112 162.314 150.198 162.229 150.215C162.203 150.206 162.194 150.215 162.177 150.215Z" fill="#005267"/>
<path d="M156.06 91.5522C155.624 91.5522 155.195 91.5178 154.767 91.441C153.362 91.1924 152.145 90.5411 151.349 89.6166C150.381 88.4944 150.012 87.004 149.687 85.6934C149.67 85.6166 149.712 85.5307 149.798 85.5135C149.875 85.4963 149.961 85.5393 149.978 85.6252C150.295 86.9095 150.664 88.3575 151.58 89.4281C152.334 90.3017 153.482 90.9095 154.818 91.1495C156.617 91.4662 158.519 91.0813 160.053 90.0875C160.121 90.0445 160.215 90.0617 160.258 90.1304C160.301 90.1986 160.284 90.2931 160.215 90.336C158.99 91.1237 157.525 91.5522 156.06 91.5522Z" fill="#A74735"/>
<path d="M133.651 98.9436C133.582 98.9436 133.514 98.8921 133.505 98.8148C133.488 98.7294 133.548 98.6521 133.625 98.6435C134.79 98.4465 137.446 96.6392 137.446 94.4207C137.446 94.3353 137.514 94.2666 137.6 94.2666C137.685 94.2666 137.754 94.3353 137.754 94.4207C137.754 96.905 134.867 98.738 133.685 98.9436C133.668 98.9436 133.659 98.9436 133.651 98.9436Z" fill="#A74735"/>
<path d="M139.861 84.2371C139.792 84.2371 139.732 84.1946 139.715 84.1259C139.527 83.4065 139.029 82.1216 138.696 81.3764C138.661 81.2991 138.696 81.2137 138.773 81.1793C138.849 81.145 138.935 81.1793 138.97 81.2566C139.312 82.0105 139.809 83.3205 140.006 84.0486C140.032 84.1259 139.981 84.2113 139.903 84.2371C139.886 84.2285 139.878 84.2371 139.861 84.2371Z" fill="#A74735"/>
<path d="M154.981 76.503C154.964 76.503 154.947 76.503 154.938 76.4944C154.861 76.4686 154.818 76.3827 154.844 76.306C155.135 75.4066 155.281 74.4643 155.272 73.5135C155.272 73.4276 155.341 73.3594 155.418 73.3594C155.504 73.3594 155.572 73.4276 155.572 73.5135C155.581 74.4987 155.426 75.4748 155.126 76.3999C155.11 76.4601 155.05 76.503 154.981 76.503Z" fill="#D17D4D"/>
<path d="M156.634 74.9949C156.625 74.9949 156.608 74.9949 156.599 74.9949C156.523 74.9777 156.462 74.9009 156.488 74.815C156.66 74.0183 156.831 73.1705 156.865 72.3651C156.865 72.2797 156.934 72.2196 157.019 72.2196C157.105 72.2196 157.165 72.2969 157.165 72.3737C157.131 73.2048 156.96 74.0612 156.788 74.8752C156.762 74.9434 156.703 74.9949 156.634 74.9949Z" fill="#D17D4D"/>
<path d="M157.902 73.5565C157.893 73.5565 157.876 73.5565 157.868 73.5565C157.79 73.5394 157.739 73.4534 157.756 73.3767C157.902 72.7512 157.988 72.0661 158.013 71.338C158.013 71.2521 158.082 71.1925 158.168 71.1925C158.253 71.1925 158.313 71.2607 158.313 71.3466C158.288 72.0918 158.202 72.8027 158.047 73.4449C158.039 73.505 157.97 73.5565 157.902 73.5565Z" fill="#D17D4D"/>
<path d="M117.649 115.432C117.597 115.432 117.546 115.407 117.52 115.355C117.366 115.098 117.246 114.833 117.152 114.55C117.127 114.473 117.169 114.378 117.255 114.353C117.34 114.327 117.426 114.37 117.452 114.456C117.529 114.713 117.649 114.961 117.786 115.192C117.829 115.261 117.803 115.364 117.734 115.407C117.7 115.424 117.675 115.432 117.649 115.432Z" fill="#D17D4D"/>
<path d="M119.079 114.798C119.019 114.798 118.959 114.764 118.933 114.696C118.796 114.336 118.634 113.976 118.445 113.642C118.402 113.565 118.428 113.471 118.505 113.437C118.582 113.394 118.676 113.42 118.711 113.496C118.908 113.848 119.071 114.216 119.216 114.593C119.25 114.67 119.208 114.764 119.131 114.79C119.113 114.79 119.096 114.798 119.079 114.798Z" fill="#D17D4D"/>
<path d="M120.338 113.805C120.278 113.805 120.226 113.77 120.201 113.71L119.584 112.297C119.55 112.22 119.584 112.126 119.661 112.091C119.738 112.057 119.832 112.091 119.867 112.169L120.484 113.582C120.518 113.659 120.484 113.753 120.406 113.787C120.381 113.805 120.363 113.805 120.338 113.805Z" fill="#D17D4D"/>
<path d="M81.0092 160.528C80.9405 160.528 80.8808 160.486 80.8636 160.417C80.8464 160.34 80.8894 160.254 80.9748 160.237C83.2106 159.663 85.1469 158.31 87.0145 157.008L87.2714 156.828C89.327 155.398 91.323 153.813 93.182 152.135C94.5014 150.944 95.7778 149.685 96.9768 148.391L97.08 148.28C98.2532 147.012 99.4613 145.71 100.19 144.135C100.224 144.057 100.318 144.023 100.386 144.057C100.464 144.092 100.498 144.186 100.464 144.254C99.7182 145.865 98.4848 147.192 97.3025 148.477L97.1998 148.588C95.9917 149.89 94.7153 151.158 93.3878 152.348C91.5117 154.044 89.5157 155.629 87.4428 157.068L87.1854 157.248C85.2925 158.567 83.3309 159.938 81.0436 160.528C81.035 160.52 81.0264 160.528 81.0092 160.528Z" fill="#005267"/>
<path d="M91.7341 142.763C91.0489 142.763 90.3809 142.207 90.2009 141.47C90.0466 140.836 90.2267 140.083 90.6808 139.466C90.7319 139.398 90.8264 139.389 90.8947 139.431C90.9635 139.483 90.9721 139.577 90.9291 139.646C90.5179 140.194 90.3637 140.854 90.5008 141.402C90.6464 142.001 91.1946 142.464 91.7428 142.464C91.7513 142.464 91.7685 142.464 91.7771 142.464C92.2485 142.447 92.6768 142.129 93.0449 141.83C94.1757 140.905 95.2978 139.8 96.377 138.541C96.4286 138.481 96.5226 138.472 96.5914 138.523C96.6516 138.575 96.6597 138.669 96.6086 138.738C95.5203 140.005 94.3815 141.127 93.2336 142.061C92.8305 142.395 92.3511 142.746 91.7857 142.763C91.7599 142.763 91.7427 142.763 91.7341 142.763Z" fill="#005267"/>
<path d="M5.25776 17.8557C5.6261 18.4381 5.69462 19.0634 5.40339 19.2518C5.11214 19.4403 4.57245 19.1148 4.2041 18.5238C3.83574 17.9413 3.76721 17.3161 4.05847 17.1276C4.34973 16.9478 4.88941 17.2733 5.25776 17.8557Z" fill="white"/>
<path d="M26.6261 31.0637C26.9179 30.8789 26.8527 30.2529 26.4806 29.6654C26.1084 29.078 25.5702 28.7516 25.2784 28.9363C24.9866 29.1211 25.0518 29.7472 25.4239 30.3346C25.7961 30.922 26.3343 31.2485 26.6261 31.0637Z" fill="white"/>
<path d="M61.8897 41.9065C62.2583 42.4889 62.3266 43.1142 62.0353 43.3026C61.744 43.4911 61.2044 43.1656 60.8363 42.5746C60.4676 41.9922 60.3994 41.3669 60.6907 41.1784C60.9819 40.9986 61.5215 41.324 61.8897 41.9065Z" fill="white"/>
<path d="M192.142 19.2415C192.434 19.0568 192.369 18.4308 191.997 17.8433C191.625 17.2558 191.086 16.9294 190.794 17.1142C190.503 17.2989 190.568 17.925 190.94 18.5124C191.312 19.0999 191.85 19.4263 192.142 19.2415Z" fill="white"/>
<path d="M252.467 37.1147C252.759 36.9299 252.694 36.3039 252.321 35.7165C251.949 35.129 251.411 34.8026 251.119 34.9873C250.827 35.1721 250.893 35.7982 251.265 36.3856C251.637 36.9731 252.175 37.2995 252.467 37.1147Z" fill="white"/>
<path d="M177.381 42.8411C177.673 42.6563 177.608 42.0303 177.236 41.4428C176.864 40.8554 176.325 40.5289 176.033 40.7136C175.742 40.8984 175.807 41.5244 176.179 42.1119C176.551 42.6993 177.089 43.0257 177.381 42.8411Z" fill="white"/>
<path d="M248.833 84.5069C249.125 84.3222 249.059 83.6961 248.687 83.1088C248.315 82.5214 247.777 82.1949 247.486 82.3796C247.194 82.5643 247.259 83.1904 247.631 83.7778C248.003 84.3651 248.541 84.6916 248.833 84.5069Z" fill="white"/>
<path d="M214.532 39.2298C214.823 39.045 214.758 38.4191 214.386 37.8316C214.014 37.2441 213.476 36.9177 213.184 37.1024C212.893 37.2872 212.958 37.9132 213.329 38.5007C213.701 39.0881 214.24 39.4146 214.532 39.2298Z" fill="white"/>
<path d="M46.8637 70.9954C47.2321 71.5779 47.3006 72.2029 47.0094 72.3913C46.7181 72.5798 46.1784 72.2544 45.8101 71.6633C45.4417 71.0813 45.3732 70.4558 45.6644 70.2673C45.9557 70.0874 46.4954 70.4128 46.8637 70.9954Z" fill="white"/>
<path d="M226.607 67.6008C226.899 67.4161 226.833 66.79 226.461 66.2026C226.089 65.6153 225.551 65.2888 225.259 65.4735C224.967 65.6582 225.032 66.2843 225.405 66.8716C225.777 67.459 226.315 67.7855 226.607 67.6008Z" fill="white"/>
<path d="M69.2347 20.2415C69.526 20.0567 69.461 19.4308 69.0891 18.8433C68.7166 18.2558 68.1787 17.9294 67.8869 18.1142C67.595 18.2989 67.6601 18.925 68.0325 19.5124C68.4044 20.0999 68.9429 20.4263 69.2347 20.2415Z" fill="white"/>
<path d="M143.143 30.4212C143.512 31.0037 143.58 31.6289 143.289 31.8174C142.998 32.0058 142.458 31.6803 142.09 31.0894C141.721 30.5069 141.653 29.8816 141.944 29.6932C142.235 29.5133 142.775 29.8388 143.143 30.4212Z" fill="white"/>
<path d="M94.5157 53.9033C94.8076 53.7186 94.742 53.0926 94.3701 52.5052C93.9977 51.9177 93.4597 51.5912 93.1679 51.7761C92.876 51.9609 92.9411 52.5868 93.3135 53.1743C93.6854 53.7616 94.2239 54.088 94.5157 53.9033Z" fill="white"/>
<path d="M105.181 24.6527C105.472 24.4679 105.407 23.8419 105.035 23.2544C104.663 22.667 104.125 22.3405 103.833 22.5253C103.541 22.7101 103.606 23.3361 103.978 23.9236C104.351 24.511 104.889 24.8375 105.181 24.6527Z" fill="white"/>
<path d="M17.1393 59.1324C17.5077 59.7149 17.5763 60.3399 17.285 60.5283C16.9937 60.7168 16.4541 60.3914 16.0857 59.8003C15.7174 59.2177 15.6488 58.5928 15.9401 58.4043C16.2313 58.2159 16.771 58.5412 17.1393 59.1324Z" fill="white"/>
<path d="M67.5777 150.918C69.0508 150.678 70.4213 150.198 71.8777 149.907C73.0342 149.676 74.251 149.556 75.4586 149.565C76.3582 149.573 77.2917 149.65 78.0802 149.942C79.7929 150.558 80.4787 152.126 79.7161 153.316C79.4334 153.753 78.9793 154.147 78.7992 154.61C78.6622 154.952 78.6794 155.303 78.6966 155.655C78.7482 156.802 78.7992 157.959 78.8508 159.106C78.868 159.578 78.8594 160.1 78.3628 160.434C77.7975 160.811 76.8634 160.768 76.0755 160.657C73.5738 160.314 71.2183 159.612 68.9138 158.875C67.1747 158.319 65.4275 157.736 63.9281 156.931C62.4292 156.126 61.17 155.063 60.6729 153.813C60.2875 152.837 60.4762 150.944 62.3346 150.696C63.0031 150.601 63.7824 150.841 64.4338 150.927C65.4957 151.072 66.5152 151.089 67.5777 150.918Z" fill="white"/>
<path d="M46.3336 158.807C46.2394 158.807 46.1537 158.764 46.0938 158.687C45.9909 158.55 46.0252 158.361 46.1537 158.267C48.0555 156.845 50.4626 156.657 52.7927 156.477C53.8206 156.4 54.8831 156.314 55.8849 156.126C57.6584 155.791 59.3889 155.072 60.8706 154.044C61.2989 153.753 61.7015 153.462 62.0959 153.179C62.8408 152.64 63.5518 152.135 64.3832 151.62C65.7881 150.755 68.1264 150.37 69.3856 150.216C69.5485 150.198 69.7027 150.31 69.7199 150.481C69.7371 150.644 69.6259 150.798 69.4544 150.815C68.2377 150.961 66.002 151.338 64.6912 152.135C63.8775 152.631 63.1751 153.136 62.4383 153.667C62.0444 153.95 61.6418 154.241 61.2049 154.541C59.6458 155.612 57.847 156.365 55.9881 156.717C54.96 156.914 53.8808 156.991 52.8355 157.076C50.4883 157.256 48.2696 157.427 46.5049 158.747C46.4621 158.781 46.3936 158.807 46.3336 158.807Z" fill="#DEEBEB"/>
<path d="M75.4672 171.037C75.3645 171.037 75.2613 170.986 75.2103 170.892C75.1243 170.746 75.1673 170.566 75.3129 170.481C77.0005 169.461 77.6432 167.389 77.8743 166.241C78.0629 165.316 78.1484 164.348 78.2258 163.423C78.294 162.609 78.3714 161.77 78.5085 160.948C78.5337 160.785 78.6966 160.673 78.8594 160.699C79.0223 160.725 79.1335 160.887 79.1077 161.05C78.9707 161.847 78.9024 162.678 78.8336 163.474C78.7482 164.425 78.6708 165.41 78.4741 166.361C78.0372 168.511 77.0262 170.155 75.63 170.995C75.5698 171.021 75.5188 171.037 75.4672 171.037Z" fill="#DEEBEB"/>
<path d="M176.285 155.243C176.174 155.243 176.071 155.183 176.019 155.08C175.943 154.935 175.994 154.755 176.148 154.669C177.972 153.702 180.14 153.864 182.033 154.086L182.384 154.129C184.166 154.344 186.008 154.566 187.67 154.001C187.824 153.95 187.996 154.027 188.055 154.19C188.107 154.344 188.029 154.515 187.867 154.575C186.076 155.191 184.166 154.961 182.316 154.738L181.965 154.695C180.166 154.481 178.11 154.326 176.439 155.209C176.379 155.226 176.328 155.243 176.285 155.243Z" fill="#DEEBEB"/>
<path d="M21.4717 151.544C21.4632 151.544 21.4632 151.544 21.4546 151.544C21.2918 151.535 21.1633 151.397 21.1633 151.226C21.309 147.869 22.8252 144.64 25.3095 142.37C26.1062 141.642 26.9971 141.017 27.8623 140.408C28.9845 139.62 30.1409 138.807 31.0575 137.787C33.3276 135.269 33.9272 131.938 34.5612 128.408C35.0152 125.916 35.4778 123.329 36.5828 121.051C36.66 120.905 36.8398 120.837 36.9855 120.914C37.1311 120.991 37.1996 121.171 37.1225 121.316C36.0518 123.518 35.5891 126.062 35.1523 128.52C34.5269 131.98 33.8844 135.552 31.503 138.199C30.5435 139.269 29.3528 140.1 28.2049 140.905C27.3569 141.496 26.4831 142.113 25.7121 142.815C23.3478 144.974 21.9 148.049 21.763 151.252C21.763 151.415 21.6345 151.544 21.4717 151.544Z" fill="#DEEBEB"/>
<path d="M250.162 146.584C250.102 146.584 250.033 146.567 249.982 146.524C249.845 146.421 249.82 146.233 249.922 146.104C250.736 145.017 251.807 144.109 253.015 143.492C253.76 143.106 254.548 142.832 255.319 142.567C255.961 142.344 256.63 142.113 257.246 141.821C258.155 141.394 259.731 140.434 260.056 138.824C260.279 137.702 259.842 136.545 259.422 135.424C259.371 135.286 259.32 135.158 259.277 135.03C258.848 133.864 258.368 132.169 259.191 130.807C259.277 130.661 259.465 130.618 259.602 130.704C259.748 130.79 259.79 130.978 259.705 131.115C259.02 132.246 259.457 133.77 259.842 134.815C259.894 134.944 259.936 135.081 259.988 135.209C260.442 136.408 260.913 137.659 260.647 138.944C260.27 140.82 258.514 141.89 257.503 142.37C256.852 142.678 256.176 142.909 255.516 143.141C254.771 143.398 254 143.672 253.289 144.031C252.158 144.614 251.164 145.453 250.402 146.473C250.342 146.55 250.248 146.584 250.162 146.584Z" fill="#DEEBEB"/>
<path d="M24.763 99.3981C23.6578 99.3981 22.6727 99.1151 21.8932 98.5669C21.7561 98.473 21.7219 98.2845 21.8247 98.1476C21.9189 98.0101 22.1074 97.9763 22.2444 98.0789C23.3923 98.8928 25.097 99.0211 26.9302 98.4386C27.8211 98.1562 28.6863 97.7535 29.5259 97.3508C30.2112 97.0254 30.9308 96.6915 31.6589 96.4171C34.8199 95.2526 38.3492 95.3122 41.4674 95.3723L50.7791 95.5436C50.9418 95.5436 51.0789 95.6805 51.0789 95.8517C51.0789 96.0144 50.9418 96.1519 50.7705 96.1519L41.4589 95.9806C38.4006 95.9291 34.9227 95.8603 31.873 96.9911C31.162 97.2483 30.4681 97.5822 29.7914 97.899C28.9347 98.3017 28.0525 98.7215 27.1273 99.0126C26.3049 99.2697 25.5082 99.3981 24.763 99.3981Z" fill="#DEEBEB"/>
<path d="M65.8306 93.2134C65.7279 93.2134 65.6333 93.1618 65.5737 93.0679C65.4877 92.9224 65.5307 92.7425 65.6677 92.6566C71.1248 89.2821 76.5216 85.6418 81.6954 81.8555C81.8325 81.7616 82.0211 81.7873 82.1152 81.9242C82.2098 82.0612 82.184 82.2496 82.0469 82.3441C76.864 86.1385 71.4585 89.7787 65.9848 93.1618C65.9332 93.1962 65.8822 93.2134 65.8306 93.2134Z" fill="#DEEBEB"/>
<path d="M187.157 63.1576C187.105 63.1576 187.045 63.1404 187.002 63.1152C183.901 61.222 180.064 60.7512 176.671 60.3399C176.509 60.3227 176.388 60.1686 176.405 60.0059C176.423 59.8432 176.577 59.723 176.74 59.7402C180.192 60.16 184.098 60.6309 187.31 62.6008C187.456 62.6867 187.499 62.8752 187.414 63.0121C187.362 63.1066 187.259 63.1576 187.157 63.1576Z" fill="#DEEBEB"/>
<path d="M231.504 100.999C231.419 100.999 231.333 100.965 231.273 100.897C227.504 96.5025 223.212 92.5621 218.518 89.1876C217.027 88.117 215.459 87.0722 213.943 86.0698C210.431 83.7401 206.79 81.3245 203.766 78.284C203.647 78.1643 203.647 77.9758 203.766 77.8555C203.886 77.7358 204.075 77.7358 204.195 77.8555C207.184 80.8537 210.791 83.2521 214.277 85.5645C215.794 86.575 217.37 87.6118 218.869 88.691C223.606 92.0998 227.932 96.0655 231.736 100.494C231.847 100.622 231.83 100.811 231.701 100.922C231.65 100.982 231.582 100.999 231.504 100.999Z" fill="#DEEBEB"/>
</g>
</g>
<defs>
<clipPath id="clip0_59_2868">
<rect width="280" height="240" fill="white"/>
</clipPath>
</defs>
</svg>
