<svg width="203" height="59" viewBox="0 0 203 59" fill="none" xmlns="http://www.w3.org/2000/svg">
<g clip-path="url(#clip0_59_3014)">
<mask id="mask0_59_3014" style="mask-type:luminance" maskUnits="userSpaceOnUse" x="52" y="0" width="151" height="23">
<path d="M203 0H52V23H203V0Z" fill="white"/>
</mask>
<g mask="url(#mask0_59_3014)">
<path d="M150.562 0.530135H138.208C138.071 0.530135 138.002 0.596418 138.002 0.728983C137.659 6.09786 136.629 11.9307 135.119 16.6368V16.8356C135.188 16.9019 135.257 16.9019 135.325 16.9019H139.581C139.649 16.9019 139.787 16.8356 139.787 16.7693C140.953 13.1238 141.914 8.35146 142.257 4.30823H146.307V16.703C146.307 16.8356 146.376 16.9019 146.513 16.9019H150.562C150.7 16.9019 150.768 16.8356 150.768 16.703V0.795265C150.768 0.6627 150.7 0.530135 150.562 0.530135ZM202.795 0.530135H198.745C198.608 0.530135 198.539 0.596418 198.539 0.728983V13.0575C197.647 13.3226 196.755 13.3889 195.794 13.3889C193.117 13.3889 192.499 12.5935 192.499 9.14685V0.795265C192.499 0.6627 192.431 0.596418 192.293 0.596418H188.244C188.107 0.596418 188.038 0.6627 188.038 0.795265V9.67711C188.038 15.2448 189.96 17.4321 194.97 17.4321C197.784 17.4321 201.01 16.703 202.863 16.0402C202.932 16.0402 203.001 15.9077 203.001 15.8414V0.795265C203.001 0.6627 202.932 0.530135 202.795 0.530135ZM117.342 0.596418H113.224C113.087 0.596418 113.018 0.6627 113.018 0.728983C112.401 3.18143 111.097 7.29094 109.312 11.5993L105.194 0.6627C105.194 0.596418 105.057 0.530135 104.988 0.530135H100.87C100.801 0.530135 100.732 0.596418 100.664 0.596418C100.595 0.6627 100.595 0.728983 100.664 0.795265L106.841 17.1007C106.223 18.3601 105.606 19.4206 105.057 20.4149C104.645 21.144 104.233 21.8731 103.821 22.6685C103.752 22.7347 103.821 22.801 103.821 22.8673C103.89 22.9336 103.958 22.9999 104.027 22.9999H108.488C108.557 22.9999 108.626 22.9336 108.694 22.8673C109.449 21.4754 110.41 19.4869 111.302 17.4984C113.911 11.533 116.038 5.96529 117.617 0.861547C117.617 0.795265 117.617 0.728983 117.548 0.6627C117.48 0.596418 117.411 0.596418 117.342 0.596418ZM132.031 13.1238C132.031 13.0575 131.962 12.9912 131.893 12.9912H131.687C130.727 13.3226 128.873 13.6541 127.569 13.6541C124.755 13.6541 123.451 12.9249 123.451 8.74915C123.451 5.43503 123.863 3.84426 127.569 3.84426C128.599 3.84426 129.628 3.97682 130.864 4.37452C131.001 4.37452 131.07 4.37452 131.138 4.24195C131.619 3.38028 132.168 2.38604 132.786 1.06039V0.861547C132.786 0.795265 132.717 0.728983 132.648 0.728983C131.001 0.198723 129.011 -0.0664062 127.295 -0.0664062C121.392 -0.0664062 118.784 2.58489 118.784 8.61659C118.784 14.7146 121.392 17.4321 127.295 17.4321C128.736 17.4321 131.687 17.1007 133.06 16.5705C133.197 16.5042 133.197 16.4379 133.197 16.3053L132.031 13.1238ZM170.398 0.596418H166.28C166.212 0.596418 166.074 0.6627 166.074 0.728983C165.457 3.18143 164.152 7.29094 162.368 11.5993L158.25 0.6627C158.25 0.596418 158.112 0.530135 158.044 0.530135H153.926C153.857 0.530135 153.788 0.596418 153.72 0.596418C153.651 0.6627 153.651 0.728983 153.72 0.795265L159.897 17.1007C159.279 18.3601 158.662 19.3543 158.112 20.4149C157.701 21.144 157.289 21.8731 156.877 22.6685C156.808 22.7347 156.877 22.801 156.877 22.8673C156.946 22.9336 157.014 22.9999 157.083 22.9999H161.544C161.613 22.9999 161.682 22.9336 161.75 22.8673C162.505 21.4754 163.466 19.4869 164.358 17.4984C166.967 11.533 169.094 5.96529 170.604 0.861547C170.604 0.795265 170.604 0.728983 170.536 0.6627C170.536 0.596418 170.467 0.596418 170.398 0.596418ZM185.498 0.530135H173.556C173.418 0.530135 173.35 0.596418 173.35 0.728983V16.703C173.35 16.8356 173.418 16.9019 173.556 16.9019H177.605C177.742 16.9019 177.811 16.8356 177.811 16.703V4.37452H184.057C184.126 4.37452 184.263 4.30823 184.263 4.24195C184.743 3.18143 185.224 1.98835 185.704 0.861547V0.6627C185.636 0.596418 185.567 0.530135 185.498 0.530135Z" fill="#EE3F58"/>
<path d="M73.4832 13.7867C70.8064 13.7867 69.9827 13.0576 69.9827 8.74928C69.9827 4.10951 70.875 3.71182 73.4832 3.71182C76.0914 3.71182 77.0523 4.10951 77.0523 8.74928C77.0523 13.1239 76.16 13.7867 73.4832 13.7867ZM73.4832 0.0662824C67.6491 0.0662824 65.3841 2.45245 65.3841 8.683C65.3841 14.9798 67.6491 17.4323 73.4832 17.4323C79.3173 17.4323 81.6509 14.9798 81.6509 8.683C81.6509 2.51873 79.3173 0.0662824 73.4832 0.0662824ZM97.7118 13.1239C97.7118 13.0576 97.6432 12.9914 97.5745 12.9914H97.3686C96.4077 13.3228 94.5545 13.6542 93.2505 13.6542C90.4364 13.6542 89.1323 12.9251 89.1323 8.74928C89.1323 5.43516 89.5441 3.84438 93.2505 3.84438C94.28 3.84438 95.3095 3.97694 96.545 4.37464C96.6136 4.37464 96.7509 4.37464 96.8195 4.24207C97.3 3.3804 97.8491 2.38617 98.4668 1.06052V0.861671C98.4668 0.795389 98.3982 0.729107 98.3295 0.729107C96.7509 0.26513 94.7605 0 93.0445 0C87.1418 0 84.5336 2.6513 84.5336 8.683C84.5336 14.781 87.1418 17.4986 93.0445 17.4986C94.4859 17.4986 97.4373 17.1671 98.81 16.6369C98.9473 16.5706 98.9473 16.5043 98.9473 16.3718L97.7118 13.1239ZM64.1486 0.530259H52.2059C52.0686 0.530259 52 0.662824 52 0.795389V16.7695C52 16.902 52.0686 16.9683 52.2059 16.9683H56.2554C56.3927 16.9683 56.4614 16.902 56.4614 16.7695V4.37464H62.7073C62.7759 4.37464 62.8445 4.30836 62.9132 4.24207C63.3936 3.18156 63.8741 1.98847 64.3545 0.861671V0.662824C64.2859 0.596542 64.2173 0.530259 64.1486 0.530259Z" fill="white"/>
</g>
</g>
<path d="M8.834 43.934C9.52467 43.934 10.1267 43.85 10.64 43.682C11.1533 43.5047 11.578 43.2573 11.914 42.94C12.2593 42.6133 12.516 42.2213 12.684 41.764C12.852 41.2973 12.936 40.7793 12.936 40.21C12.936 39.6687 12.852 39.1787 12.684 38.74C12.516 38.3013 12.264 37.928 11.928 37.62C11.592 37.312 11.1673 37.0787 10.654 36.92C10.1407 36.752 9.534 36.668 8.834 36.668H6.02V43.934H8.834ZM8.834 33.756C10.1873 33.756 11.3587 33.9147 12.348 34.232C13.3373 34.5493 14.154 34.9927 14.798 35.562C15.442 36.1313 15.918 36.8127 16.226 37.606C16.5433 38.3993 16.702 39.2673 16.702 40.21C16.702 41.19 16.5387 42.0907 16.212 42.912C15.8853 43.724 15.3953 44.424 14.742 45.012C14.0887 45.6 13.2673 46.0573 12.278 46.384C11.298 46.7107 10.15 46.874 8.834 46.874H6.02V54H2.254V33.756H8.834ZM27.6417 45.166C27.6417 44.718 27.5764 44.298 27.4457 43.906C27.3244 43.5047 27.1377 43.1547 26.8857 42.856C26.6337 42.5573 26.3117 42.324 25.9197 42.156C25.537 41.9787 25.089 41.89 24.5757 41.89C23.577 41.89 22.7884 42.1747 22.2097 42.744C21.6404 43.3133 21.2764 44.1207 21.1177 45.166H27.6417ZM21.0477 47.252C21.1037 47.9893 21.2344 48.6287 21.4397 49.17C21.645 49.702 21.9157 50.1453 22.2517 50.5C22.5877 50.8453 22.9844 51.1067 23.4417 51.284C23.9084 51.452 24.4217 51.536 24.9817 51.536C25.5417 51.536 26.0224 51.4707 26.4237 51.34C26.8344 51.2093 27.189 51.0647 27.4877 50.906C27.7957 50.7473 28.0617 50.6027 28.2857 50.472C28.519 50.3413 28.743 50.276 28.9577 50.276C29.247 50.276 29.4617 50.3833 29.6017 50.598L30.5957 51.858C30.213 52.306 29.7837 52.684 29.3077 52.992C28.8317 53.2907 28.3324 53.5333 27.8097 53.72C27.2964 53.8973 26.769 54.0233 26.2277 54.098C25.6957 54.1727 25.1777 54.21 24.6737 54.21C23.675 54.21 22.7464 54.0467 21.8877 53.72C21.029 53.384 20.2824 52.894 19.6477 52.25C19.013 51.5967 18.5137 50.794 18.1497 49.842C17.7857 48.8807 17.6037 47.77 17.6037 46.51C17.6037 45.53 17.7624 44.6107 18.0797 43.752C18.397 42.884 18.8497 42.1327 19.4377 41.498C20.035 40.854 20.7584 40.3453 21.6077 39.972C22.4664 39.5987 23.4324 39.412 24.5057 39.412C25.411 39.412 26.2464 39.5567 27.0117 39.846C27.777 40.1353 28.435 40.56 28.9857 41.12C29.5364 41.6707 29.9657 42.352 30.2737 43.164C30.591 43.9667 30.7497 44.886 30.7497 45.922C30.7497 46.4447 30.6937 46.7993 30.5817 46.986C30.4697 47.1633 30.255 47.252 29.9377 47.252H21.0477ZM53.2107 39.636V54H33.3447V39.636H36.8027V51.438H41.5487V39.636H45.0067V51.438H49.7527V39.636H53.2107ZM64.2023 47.868C63.2036 47.9147 62.3636 48.0033 61.6823 48.134C61.0009 48.2553 60.4549 48.414 60.0443 48.61C59.6336 48.806 59.3396 49.0347 59.1623 49.296C58.9849 49.5573 58.8963 49.842 58.8963 50.15C58.8963 50.7567 59.0736 51.1907 59.4283 51.452C59.7923 51.7133 60.2636 51.844 60.8423 51.844C61.5516 51.844 62.1629 51.718 62.6763 51.466C63.1989 51.2047 63.7076 50.8127 64.2023 50.29V47.868ZM56.2783 41.638C57.9303 40.126 59.9183 39.37 62.2423 39.37C63.0823 39.37 63.8336 39.51 64.4963 39.79C65.1589 40.0607 65.7189 40.4433 66.1763 40.938C66.6336 41.4233 66.9789 42.0067 67.2123 42.688C67.4549 43.3693 67.5763 44.116 67.5763 44.928V54H66.0083C65.6816 54 65.4296 53.9533 65.2523 53.86C65.0749 53.7573 64.9349 53.5567 64.8323 53.258L64.5243 52.222C64.1603 52.5487 63.8056 52.838 63.4603 53.09C63.1149 53.3327 62.7556 53.538 62.3823 53.706C62.0089 53.874 61.6076 54 61.1783 54.084C60.7583 54.1773 60.2916 54.224 59.7783 54.224C59.1716 54.224 58.6116 54.1447 58.0983 53.986C57.5849 53.818 57.1416 53.5707 56.7683 53.244C56.3949 52.9173 56.1056 52.5113 55.9003 52.026C55.6949 51.5407 55.5923 50.976 55.5923 50.332C55.5923 49.968 55.6529 49.6087 55.7743 49.254C55.8956 48.89 56.0916 48.5447 56.3623 48.218C56.6423 47.8913 57.0016 47.5833 57.4403 47.294C57.8789 47.0047 58.4156 46.7527 59.0503 46.538C59.6943 46.3233 60.4409 46.1507 61.2903 46.02C62.1396 45.88 63.1103 45.796 64.2023 45.768V44.928C64.2023 43.9667 63.9969 43.2573 63.5863 42.8C63.1756 42.3333 62.5829 42.1 61.8083 42.1C61.2483 42.1 60.7816 42.1653 60.4083 42.296C60.0443 42.4267 59.7223 42.576 59.4423 42.744C59.1623 42.9027 58.9056 43.0473 58.6723 43.178C58.4483 43.3087 58.1963 43.374 57.9163 43.374C57.6736 43.374 57.4683 43.3133 57.3003 43.192C57.1323 43.0613 56.9969 42.912 56.8943 42.744L56.2783 41.638ZM80.087 45.166C80.087 44.718 80.0217 44.298 79.891 43.906C79.7697 43.5047 79.583 43.1547 79.331 42.856C79.079 42.5573 78.757 42.324 78.365 42.156C77.9823 41.9787 77.5343 41.89 77.021 41.89C76.0223 41.89 75.2337 42.1747 74.655 42.744C74.0857 43.3133 73.7217 44.1207 73.563 45.166H80.087ZM73.493 47.252C73.549 47.9893 73.6797 48.6287 73.885 49.17C74.0903 49.702 74.361 50.1453 74.697 50.5C75.033 50.8453 75.4297 51.1067 75.887 51.284C76.3537 51.452 76.867 51.536 77.427 51.536C77.987 51.536 78.4677 51.4707 78.869 51.34C79.2797 51.2093 79.6343 51.0647 79.933 50.906C80.241 50.7473 80.507 50.6027 80.731 50.472C80.9643 50.3413 81.1883 50.276 81.403 50.276C81.6923 50.276 81.907 50.3833 82.047 50.598L83.041 51.858C82.6583 52.306 82.229 52.684 81.753 52.992C81.277 53.2907 80.7777 53.5333 80.255 53.72C79.7417 53.8973 79.2143 54.0233 78.673 54.098C78.141 54.1727 77.623 54.21 77.119 54.21C76.1203 54.21 75.1917 54.0467 74.333 53.72C73.4743 53.384 72.7277 52.894 72.093 52.25C71.4583 51.5967 70.959 50.794 70.595 49.842C70.231 48.8807 70.049 47.77 70.049 46.51C70.049 45.53 70.2077 44.6107 70.525 43.752C70.8423 42.884 71.295 42.1327 71.883 41.498C72.4803 40.854 73.2037 40.3453 74.053 39.972C74.9117 39.5987 75.8777 39.412 76.951 39.412C77.8563 39.412 78.6917 39.5567 79.457 39.846C80.2223 40.1353 80.8803 40.56 81.431 41.12C81.9817 41.6707 82.411 42.352 82.719 43.164C83.0363 43.9667 83.195 44.886 83.195 45.922C83.195 46.4447 83.139 46.7993 83.027 46.986C82.915 47.1633 82.7003 47.252 82.383 47.252H73.493ZM102.436 39.608V54H99.314V45.992C99.314 45.6653 99.328 45.2967 99.356 44.886C99.3934 44.4753 99.4494 44.0927 99.524 43.738L95.296 51.494C95.0907 51.8953 94.764 52.096 94.316 52.096H93.952C93.504 52.096 93.1774 51.8953 92.972 51.494L88.688 43.696C88.7534 44.0507 88.8047 44.438 88.842 44.858C88.8887 45.278 88.912 45.656 88.912 45.992V54H85.79V39.608H88.646C88.8887 39.608 89.1267 39.6593 89.36 39.762C89.6027 39.8647 89.8034 40.07 89.962 40.378L93.35 46.426C93.4994 46.706 93.6394 47.0047 93.77 47.322C93.9007 47.63 94.022 47.9427 94.134 48.26C94.246 47.9427 94.3627 47.6253 94.484 47.308C94.6147 46.9907 94.7547 46.6967 94.904 46.426L98.264 40.378C98.432 40.0607 98.6327 39.8553 98.866 39.762C99.0994 39.6593 99.3374 39.608 99.58 39.608H102.436ZM118.535 51.634C119.263 51.634 119.837 51.4567 120.257 51.102C120.686 50.7473 120.901 50.262 120.901 49.646C120.901 49.3847 120.864 49.142 120.789 48.918C120.724 48.6847 120.602 48.484 120.425 48.316C120.248 48.148 120.005 48.0173 119.697 47.924C119.398 47.8307 119.016 47.784 118.549 47.784H115.959V51.634H118.535ZM115.959 41.89V45.656H118.227C118.563 45.656 118.871 45.6093 119.151 45.516C119.431 45.4133 119.674 45.2733 119.879 45.096C120.084 44.9093 120.243 44.6947 120.355 44.452C120.467 44.2 120.523 43.9247 120.523 43.626C120.523 43.4113 120.486 43.2013 120.411 42.996C120.336 42.7813 120.21 42.5947 120.033 42.436C119.856 42.268 119.618 42.1373 119.319 42.044C119.03 41.9413 118.666 41.89 118.227 41.89H115.959ZM118.325 39.636C119.23 39.636 120.01 39.7247 120.663 39.902C121.326 40.0793 121.872 40.322 122.301 40.63C122.73 40.938 123.048 41.3067 123.253 41.736C123.458 42.156 123.561 42.6133 123.561 43.108C123.561 43.416 123.519 43.738 123.435 44.074C123.36 44.4007 123.22 44.718 123.015 45.026C122.819 45.334 122.548 45.614 122.203 45.866C121.858 46.118 121.419 46.314 120.887 46.454C121.363 46.5567 121.797 46.7013 122.189 46.888C122.581 47.0653 122.917 47.294 123.197 47.574C123.477 47.8447 123.692 48.1667 123.841 48.54C124 48.904 124.079 49.3147 124.079 49.772C124.079 50.5 123.925 51.13 123.617 51.662C123.318 52.194 122.912 52.6327 122.399 52.978C121.895 53.3233 121.307 53.58 120.635 53.748C119.972 53.916 119.277 54 118.549 54H112.669V39.636H118.325ZM143.397 39.608V54H140.275V45.992C140.275 45.6653 140.289 45.2967 140.317 44.886C140.354 44.4753 140.41 44.0927 140.485 43.738L136.257 51.494C136.052 51.8953 135.725 52.096 135.277 52.096H134.913C134.465 52.096 134.138 51.8953 133.933 51.494L129.649 43.696C129.714 44.0507 129.766 44.438 129.803 44.858C129.85 45.278 129.873 45.656 129.873 45.992V54H126.751V39.608H129.607C129.85 39.608 130.088 39.6593 130.321 39.762C130.564 39.8647 130.764 40.07 130.923 40.378L134.311 46.426C134.46 46.706 134.6 47.0047 134.731 47.322C134.862 47.63 134.983 47.9427 135.095 48.26C135.207 47.9427 135.324 47.6253 135.445 47.308C135.576 46.9907 135.716 46.6967 135.865 46.426L139.225 40.378C139.393 40.0607 139.594 39.8553 139.827 39.762C140.06 39.6593 140.298 39.608 140.541 39.608H143.397ZM156.075 45.166C156.075 44.718 156.01 44.298 155.879 43.906C155.758 43.5047 155.571 43.1547 155.319 42.856C155.067 42.5573 154.745 42.324 154.353 42.156C153.971 41.9787 153.523 41.89 153.009 41.89C152.011 41.89 151.222 42.1747 150.643 42.744C150.074 43.3133 149.71 44.1207 149.551 45.166H156.075ZM149.481 47.252C149.537 47.9893 149.668 48.6287 149.873 49.17C150.079 49.702 150.349 50.1453 150.685 50.5C151.021 50.8453 151.418 51.1067 151.875 51.284C152.342 51.452 152.855 51.536 153.415 51.536C153.975 51.536 154.456 51.4707 154.857 51.34C155.268 51.2093 155.623 51.0647 155.921 50.906C156.229 50.7473 156.495 50.6027 156.719 50.472C156.953 50.3413 157.177 50.276 157.391 50.276C157.681 50.276 157.895 50.3833 158.035 50.598L159.029 51.858C158.647 52.306 158.217 52.684 157.741 52.992C157.265 53.2907 156.766 53.5333 156.243 53.72C155.73 53.8973 155.203 54.0233 154.661 54.098C154.129 54.1727 153.611 54.21 153.107 54.21C152.109 54.21 151.18 54.0467 150.321 53.72C149.463 53.384 148.716 52.894 148.081 52.25C147.447 51.5967 146.947 50.794 146.583 49.842C146.219 48.8807 146.037 47.77 146.037 46.51C146.037 45.53 146.196 44.6107 146.513 43.752C146.831 42.884 147.283 42.1327 147.871 41.498C148.469 40.854 149.192 40.3453 150.041 39.972C150.9 39.5987 151.866 39.412 152.939 39.412C153.845 39.412 154.68 39.5567 155.445 39.846C156.211 40.1353 156.869 40.56 157.419 41.12C157.97 41.6707 158.399 42.352 158.707 43.164C159.025 43.9667 159.183 44.886 159.183 45.922C159.183 46.4447 159.127 46.7993 159.015 46.986C158.903 47.1633 158.689 47.252 158.371 47.252H149.481ZM172.068 42.674C171.966 42.8047 171.863 42.9073 171.76 42.982C171.667 43.0567 171.527 43.094 171.34 43.094C171.163 43.094 170.99 43.0427 170.822 42.94C170.654 42.828 170.454 42.7067 170.22 42.576C169.987 42.436 169.707 42.3147 169.38 42.212C169.063 42.1 168.666 42.044 168.19 42.044C167.584 42.044 167.052 42.156 166.594 42.38C166.137 42.5947 165.754 42.9073 165.446 43.318C165.148 43.7287 164.924 44.228 164.774 44.816C164.625 45.3947 164.55 46.0527 164.55 46.79C164.55 47.5553 164.63 48.2367 164.788 48.834C164.956 49.4313 165.194 49.9353 165.502 50.346C165.81 50.7473 166.184 51.0553 166.622 51.27C167.061 51.4753 167.556 51.578 168.106 51.578C168.657 51.578 169.1 51.5127 169.436 51.382C169.782 51.242 170.071 51.0927 170.304 50.934C170.538 50.766 170.738 50.6167 170.906 50.486C171.084 50.346 171.28 50.276 171.494 50.276C171.774 50.276 171.984 50.3833 172.124 50.598L173.118 51.858C172.736 52.306 172.32 52.684 171.872 52.992C171.424 53.2907 170.958 53.5333 170.472 53.72C169.996 53.8973 169.502 54.0233 168.988 54.098C168.484 54.1727 167.98 54.21 167.476 54.21C166.59 54.21 165.754 54.0467 164.97 53.72C164.186 53.384 163.5 52.8987 162.912 52.264C162.324 51.6293 161.858 50.8547 161.512 49.94C161.176 49.016 161.008 47.966 161.008 46.79C161.008 45.7353 161.158 44.76 161.456 43.864C161.764 42.9587 162.212 42.1793 162.8 41.526C163.388 40.8633 164.116 40.3453 164.984 39.972C165.852 39.5987 166.851 39.412 167.98 39.412C169.054 39.412 169.992 39.5847 170.794 39.93C171.606 40.2753 172.334 40.77 172.978 41.414L172.068 42.674ZM187.606 42.198H182.482V54H179.024V42.198H173.914V39.636H187.606V42.198ZM198.485 45.166C198.485 44.718 198.42 44.298 198.289 43.906C198.168 43.5047 197.981 43.1547 197.729 42.856C197.477 42.5573 197.155 42.324 196.763 42.156C196.381 41.9787 195.933 41.89 195.419 41.89C194.421 41.89 193.632 42.1747 193.053 42.744C192.484 43.3133 192.12 44.1207 191.961 45.166H198.485ZM191.891 47.252C191.947 47.9893 192.078 48.6287 192.283 49.17C192.489 49.702 192.759 50.1453 193.095 50.5C193.431 50.8453 193.828 51.1067 194.285 51.284C194.752 51.452 195.265 51.536 195.825 51.536C196.385 51.536 196.866 51.4707 197.267 51.34C197.678 51.2093 198.033 51.0647 198.331 50.906C198.639 50.7473 198.905 50.6027 199.129 50.472C199.363 50.3413 199.587 50.276 199.801 50.276C200.091 50.276 200.305 50.3833 200.445 50.598L201.439 51.858C201.057 52.306 200.627 52.684 200.151 52.992C199.675 53.2907 199.176 53.5333 198.653 53.72C198.14 53.8973 197.613 54.0233 197.071 54.098C196.539 54.1727 196.021 54.21 195.517 54.21C194.519 54.21 193.59 54.0467 192.731 53.72C191.873 53.384 191.126 52.894 190.491 52.25C189.857 51.5967 189.357 50.794 188.993 49.842C188.629 48.8807 188.447 47.77 188.447 46.51C188.447 45.53 188.606 44.6107 188.923 43.752C189.241 42.884 189.693 42.1327 190.281 41.498C190.879 40.854 191.602 40.3453 192.451 39.972C193.31 39.5987 194.276 39.412 195.349 39.412C196.255 39.412 197.09 39.5567 197.855 39.846C198.621 40.1353 199.279 40.56 199.829 41.12C200.38 41.6707 200.809 42.352 201.117 43.164C201.435 43.9667 201.593 44.886 201.593 45.922C201.593 46.4447 201.537 46.7993 201.425 46.986C201.313 47.1633 201.099 47.252 200.781 47.252H191.891Z" fill="white"/>
<defs>
<clipPath id="clip0_59_3014">
<rect width="151" height="23" fill="white" transform="translate(52)"/>
</clipPath>
</defs>
</svg>
