<svg width="107" height="16" viewBox="0 0 107 16" fill="none" xmlns="http://www.w3.org/2000/svg">
<g clip-path="url(#clip0_59_6758)">
<mask id="mask0_59_6758" style="mask-type:luminance" maskUnits="userSpaceOnUse" x="0" y="0" width="107" height="16">
<path d="M107 0H0V16H107V0Z" fill="white"/>
</mask>
<g mask="url(#mask0_59_6758)">
<path d="M69.8424 0.368782H61.0879C60.9906 0.368782 60.942 0.414891 60.942 0.507111C60.6988 4.24198 59.9692 8.29961 58.8992 11.5734V11.7117C58.9479 11.7578 58.9965 11.7578 59.0451 11.7578H62.0606C62.1092 11.7578 62.2065 11.7117 62.2065 11.6656C63.0333 9.12959 63.7142 5.8097 63.9574 2.99702H66.827V11.6195C66.827 11.7117 66.8756 11.7578 66.9729 11.7578H69.8424C69.9397 11.7578 69.9883 11.7117 69.9883 11.6195V0.55322C69.9883 0.461001 69.9397 0.368782 69.8424 0.368782ZM106.855 0.368782H103.985C103.888 0.368782 103.839 0.414891 103.839 0.507111V9.08347C103.207 9.26789 102.575 9.31401 101.894 9.31401C99.997 9.31401 99.559 8.76069 99.559 6.36302V0.55322C99.559 0.461001 99.5109 0.414892 99.4131 0.414892H96.5439C96.4468 0.414892 96.3979 0.461001 96.3979 0.55322V6.73189C96.3979 10.6051 97.7599 12.1267 101.31 12.1267C103.304 12.1267 105.59 11.6195 106.903 11.1584C106.952 11.1584 107.001 11.0662 107.001 11.0201V0.55322C107.001 0.461001 106.952 0.368782 106.855 0.368782ZM46.3024 0.414892H43.3842C43.287 0.414892 43.2383 0.461001 43.2383 0.507111C42.8006 2.21316 41.8765 5.07195 40.612 8.06907L37.6938 0.461001C37.6938 0.414891 37.5965 0.368782 37.5479 0.368782H34.6297C34.5811 0.368782 34.5324 0.414892 34.4838 0.414892C34.4351 0.461001 34.4351 0.507111 34.4838 0.55322L38.8611 11.8961C38.4233 12.7722 37.9856 13.51 37.5965 14.2017C37.3047 14.7089 37.0129 15.2161 36.7211 15.7694C36.6724 15.8154 36.7211 15.8616 36.7211 15.9077C36.7697 15.9538 36.8183 15.9999 36.867 15.9999H40.0283C40.077 15.9999 40.1256 15.9538 40.1742 15.9077C40.7092 14.9394 41.3901 13.5561 42.0224 12.1728C43.8706 8.02295 45.3783 4.14976 46.497 0.599329C46.497 0.55322 46.497 0.507111 46.4483 0.461001C46.3997 0.414891 46.3511 0.414892 46.3024 0.414892ZM56.7106 9.12959C56.7106 9.08347 56.662 9.03735 56.6133 9.03735H56.4674C55.7865 9.26789 54.4733 9.4985 53.5492 9.4985C51.5551 9.4985 50.6311 8.99123 50.6311 6.08636C50.6311 3.78088 50.9229 2.67426 53.5492 2.67426C54.2788 2.67426 55.0083 2.76648 55.8838 3.04314C55.9811 3.04314 56.0297 3.04314 56.0783 2.95091C56.4188 2.35149 56.8079 1.65985 57.2456 0.737655V0.599329C57.2456 0.55322 57.197 0.507111 57.1483 0.507111C55.9811 0.138234 54.5706 -0.0462036 53.3547 -0.0462036C49.172 -0.0462036 47.3238 1.79818 47.3238 5.99414C47.3238 10.2362 49.172 12.1267 53.3547 12.1267C54.3761 12.1267 56.4674 11.8961 57.4401 11.5273C57.5374 11.4812 57.5374 11.4351 57.5374 11.3428L56.7106 9.12959ZM83.8981 0.414892H80.98C80.9318 0.414892 80.834 0.461001 80.834 0.507111C80.3968 2.21316 79.4721 5.07195 78.2079 8.06907L75.2899 0.461001C75.2899 0.414891 75.1921 0.368782 75.1439 0.368782H72.2259C72.177 0.368782 72.1281 0.414892 72.0799 0.414892C72.031 0.461001 72.031 0.507111 72.0799 0.55322L76.457 11.8961C76.0191 12.7722 75.5818 13.4639 75.1921 14.2017C74.9009 14.7089 74.6089 15.2161 74.317 15.7694C74.2681 15.8154 74.317 15.8616 74.317 15.9077C74.3659 15.9538 74.4141 15.9999 74.4629 15.9999H77.6241C77.6729 15.9999 77.7218 15.9538 77.77 15.9077C78.305 14.9394 78.986 13.5561 79.6181 12.1728C81.4668 8.02295 82.974 4.14976 84.044 0.599329C84.044 0.55322 84.0441 0.507111 83.9959 0.461001C83.9959 0.414891 83.947 0.414892 83.8981 0.414892ZM94.5981 0.368782H86.1359C86.0381 0.368782 85.9899 0.414891 85.9899 0.507111V11.6195C85.9899 11.7117 86.0381 11.7578 86.1359 11.7578H89.005C89.1021 11.7578 89.151 11.7117 89.151 11.6195V3.04314H93.577C93.6259 3.04314 93.7229 2.99702 93.7229 2.95091C94.0631 2.21316 94.4039 1.38319 94.744 0.599329V0.461001C94.6959 0.414891 94.647 0.368782 94.5981 0.368782Z" fill="#EE3F58"/>
<path d="M15.2232 9.59075C13.3264 9.59075 12.7427 9.08355 12.7427 6.08646C12.7427 2.85879 13.375 2.58214 15.2232 2.58214C17.0714 2.58214 17.7523 2.85879 17.7523 6.08646C17.7523 9.12967 17.12 9.59075 15.2232 9.59075ZM15.2232 0.0461095C11.0891 0.0461095 9.4841 1.70605 9.4841 6.04035C9.4841 10.4207 11.0891 12.1268 15.2232 12.1268C19.3573 12.1268 21.0109 10.4207 21.0109 6.04035C21.0109 1.75216 19.3573 0.0461095 15.2232 0.0461095ZM32.3918 9.12967C32.3918 9.08355 32.3432 9.0375 32.2945 9.0375H32.1486C31.4677 9.26803 30.1545 9.49857 29.2305 9.49857C27.2364 9.49857 26.3123 8.99137 26.3123 6.08646C26.3123 3.78098 26.6041 2.67435 29.2305 2.67435C29.96 2.67435 30.6895 2.76657 31.565 3.04323C31.6136 3.04323 31.7109 3.04323 31.7595 2.95101C32.1 2.35158 32.4891 1.65994 32.9268 0.737753V0.599423C32.9268 0.553314 32.8782 0.507205 32.8295 0.507205C31.7109 0.184438 30.3005 0 29.0845 0C24.9018 0 23.0536 1.84438 23.0536 6.04035C23.0536 10.2824 24.9018 12.1729 29.0845 12.1729C30.1059 12.1729 32.1973 11.9423 33.17 11.5735C33.2673 11.5274 33.2673 11.4813 33.2673 11.3891L32.3918 9.12967ZM8.60861 0.368876H0.145909C0.0486364 0.368876 0 0.461095 0 0.553314V11.6657C0 11.7579 0.0486364 11.804 0.145909 11.804H3.01545C3.11273 11.804 3.16136 11.7579 3.16136 11.6657V3.04323H7.58729C7.6359 3.04323 7.68451 2.99712 7.7332 2.95101C8.07361 2.21326 8.4141 1.38328 8.75451 0.599423V0.461095C8.7059 0.414986 8.65729 0.368876 8.60861 0.368876Z" fill="white"/>
</g>
</g>
<defs>
<clipPath id="clip0_59_6758">
<rect width="107" height="16" fill="white"/>
</clipPath>
</defs>
</svg>
